<mxfile host="app.diagrams.net" modified="2023-06-10T21:15:59.839Z" agent="Mozilla/5.0 (X11; Linux x86_64; rv:109.0) Gecko/20100101 Firefox/114.0" etag="2RNBkvBIAIcZNl38G8cn" version="21.3.8" type="github">
  <diagram name="Page-1" id="5Nz___J6LYQ87e6h-gi0">
    <mxGraphModel dx="4014" dy="1756" grid="1" gridSize="10" guides="1" tooltips="1" connect="1" arrows="1" fold="1" page="1" pageScale="1" pageWidth="827" pageHeight="1169" math="0" shadow="0">
      <root>
        <mxCell id="0" />
        <mxCell id="1" parent="0" />
        <mxCell id="JWXI3P4WpeoxLLxnXd8x-6" value="" style="shape=image;verticalLabelPosition=bottom;labelBackgroundColor=default;verticalAlign=top;aspect=fixed;imageAspect=0;image=data:image/png,iVBORw0KGgoAAAANSUhEUgAAAPMAAAENCAYAAADaGVPiAAAABHNCSVQICAgIfAhkiAAADzBJREFUeF7tnN+LZEcVx2t2Zje7q/mxu65mQdS/QI0+uDEPQUgMIsFsFNEYdUEDeQgk/4nmQRRMBDdCzIPZ+KQSwQcxRFBJEHxaQWVF3azRVVA3ZjKe6p4m7czc7ro/quqcU58mnd7pe2/VOZ9vfaeqzu2ejZ0XL+4EQ4+Ns+eCxGwoYkLVQiCOnfhYHj+L9xYxWh5bW1pAEwcEShFYNrBl8+7lhZn3EuFnlwS8GnhZLMzscuiS1ILA3qX13mW1J1KHPCVDLhBYJrDXyN7pMDN7V7jh/Dzth1NkZGZOocQ5EDBAADMbEIkQIZBCADOnUOIcCBgggJkNiESIEEghgJlTKHEOBAwQwMwGRCJECKQQwMwplDgHAgYIYGYDIhEiBFIIYOYUSpwDAQMEMLMBkQgRAikEMHMKJc6BgAECmNmASIQIgRQCmDmFEudAwAABzGxAJEKEQAoBzJxCiXMgYICAOTPH76h6/msRBsYMISolYM7MSjkSFgSqE8DM1SUgAAhMQwAzT8ORViBQnQBmri4BAZQk4LnmgplLjiT6gkBGApg5I1yahkBJApi5JG36gkBGApg5I1yahkBJApi5JG36gkBGApg5I1yahkBJApi5JG36gkBGApg5I1yahkBJApi5JG36UkHA6wdHMLOK4UUQEBhPwKSZvf5mHS8nLbRMwKSZWxaM3CHQRQAzd5HhfQgYI4CZjQlGuBDoIoCZu8jwPgSMEcDMxgQj3GkIeCyiYuZpxgatQKA6AcxcXQICgMA0BDDzNBxNtHL5L1fDv/5zffZ8fXs77OzsmIibINMIbKWdxlkeCDxy7KFw+a8hnBYP33gthNffkKzkubERwqHNEI4eCeHwsRCOHQ/haycveki5qRzMmnlRwIivPNIInJB12OYnQzj1bAivfGnm47CYm+MSLf78tu+LsVmvpQFVdpZZMyvjqD6cd549F+78sczGz81de+IZMe+2mFncvJiZtw6HsCUz9BajQr2eBwWIbAdRcfreT+4K4U8rcvvoEyHc+o4QTqw4x9Mhb6s7FlSeRueKXN4tx2RrHB6Q52fvDuET8hqfn4rX3Df7L5z6dggXTt4dHhfT87BHgJnZnmaDIv69XPWqPC99U0z7VimCnZ8vs7/zhRAelH305qflKcvsM3c8v3L2HtQ5FxUhwMxcBHP9Ti5LofA1CUPuSIW3y+tsvxwrXvKIr2/IM77eK/VEior19RoSAWYeQs3wNacfFrOKkX8qM/LPzs8TeeGL8u8H5waPpm7p4eljnSyzWxq5kmv0ajTs7U/O99Bn5edYzY7PWNmOMzYPmwSYmW3qNirqqzIrX5c19+Ie83Z0uJj5yufeXHqP6oCLqxDAzFWwV+z0gtxrlu6viJlnM7L8e0feuHJe7i8/JTMza7WK4ozr2rSZPe13xsmYfvXNovjMwDfKa/y3PF+TmTm+J5/kDE/N7lXxsEiA38MWVRsR8w27s/FxWWM/fX7e0Afk5ZQ8j0RH8zBLwPTMbJZ6xcAPy6/vKHqchW+T5+ffFcJN35q/F4/xsEsAM9vVblDk8dtRUfSj8vyvPH/zB7nvLHvm+N6mHGvx4WW7hpkbG70LM8fXX38mhF9J/kc2T87MHN9jpW13QJg3s5ffqqWG0KYoHr+qfESm4fd8NwRZZcuS+0S4Sd6LZuZhlwC7JLva9Y58Wz7SuSFfhYyPj4XtcI98dzk+/nb9t+GZM/PvhX/jxd7NcoESAuZnZiUcTYYRZ+Jr8tWpG0xGP23QHlZ4mHnaMWGmtdkeWf4XX79+5ntm4ibQbgIss7vZuDpyhyyvfycZLb4Rda/8PPvQiLx36PDig52uUm4uGRczs4clUu6RF+0ajXvn02Li3X1z/DjnLT8M4fjZNz/29SE59tyzP8odDu1nIMDMnAGqxiYvSVDyxzfD9cdDeEz+Ftilu+bL7L//O4RHnw/hw2Li98rxX8jzvvvv0ZgCMa0h4GJmXpMjh4XAK7sUfi6vX41Gjj/LzDy7tyw/vCCV7pduPT37imSrD+srPMzcyMiNA/WPS7nGW8rXxNRH5fvLX3nL/LbU5T8vLN8IFGdpssx2JuiqdN4nB2+XPXL8SyNXPz4/859yX+oBWWLf/IP5ly3inxfiYZMAZrap2+Coj4t5X/3IfJkdC2Kbsj2Or1u7le3BDXNhdQKYuboE5QJ4Wbp6WYwcH7fI8355Xliaid8f5p8OKxcRPU1JgD3zlDQNtfUP+cTIk3uW1C+xxDak4P5QmZn3M3H7zuIDI24TbDwxzNzIAFh8UGSRLsb2J7ybZbb1e4T+hpbNjCyPIzdmtjl0iBoC0xHAzNOxpCUIVCWAmaviL9M5++UynGv3gplrK0D/6ghY3Te7MrNVEdSNZgIyScCVmU0qQNAQmIgA95knAqm5Ge4pa1Znutgw83Qs1bZEAay/NIstm6VfhO6W2eyb+w9crvBBwJ2ZfchCFhDoTwAz92fGFRBQSQAzq5RluqDYL0/HUntLmFm7QsRXjYC1+otLM1sTodpopWNXBFya2ZVCJAOBRALcZ04EZfU0S/dJrTLWEjdm1qJEhjgofo2HaunDIyyzx+tNCxBQQcCtmSmCqRhfBFGQgFszF2RIVxBQQYA9swoZ8gRB8SsPV62tYmatyoyMi+LXSIBLl1spgrHMnk5zWoJAVQKuzUwRrOrYovPCBFybuTBLuoNAVQLsmaviz9c5xa9p2VrYN2PmaTVX0xoFMDVSFAuEZXYx1HQEgbwE3JuZIljeAUTregi4N7Me1EQCgbwE2DPn5VutdQpg06PXXgTDzNNrXr1Fil/VJagSQBPLbPbNVcYWnRYm0ISZCzOlOwhUIYCZq2CnU6sENK/y2DNbHVUr4qb4tQKO40OY2Zm4FL+cCdojnWaW2ZqXRz304lQIdBJoxsydBDgAAScEMLMTIUmjHAGtqzz2zOXGQJGeKH4VwayyE8ysUpbhQVEAG87O+pVNLbO1Lo+sDyLi10GgKTPrQE4UEMhDADPn4UqrzgloXOWxZ3Y26CiAORO0RzqYuQcs7adS/NKuUN74mltma1we5ZWY1lsh0JyZWxGWPPMT0DYxYOb8mtMDBIoQYM9cBHOZTih+leGstZcmzbxYHnka/BS/tFqsXFwss8uxpicIZCWAmbPipXHvBDQVwTCz99FGfs0QaHLP7FFdT/t/j/qUyKlZM3sqglH8KmEV/X2wzNavERFCIIkAZk7CxEkQ6CagpQiGmbs14ggETBFods8cVfKyb6b4Zcpz2YJt2szZqBZumAJYYeBKu2OZrVQYwrJFQMO+GTPbGjNEC4FOApi5Ew0HIGCLQPN7Zg9FMApgtkyXK9rmzZwLbKl2KX6VIq2/H5bZ+jUiQiMEahfBMLORgUKYEFhHADOvI8RxCBghwJ5ZhLJcBKP4ZcRpBcJkZi4AmS4gUIIAM3MJypn6oJKdCeyIZmuu8piZRwjHpRDQRAAz76pR+7aCpkFBLDYJYGabuhE1BPYRYM+8D4mdN6hk29GqRKSYuQTlTH1QAMsEdmSztYpgLLNHCsflENBCADMvKUERTMuwJI4hBDDzEGpcAwGFBNgzKxQlNSQKYKmk2jgPMxvVmeKXbuFqFMFYZu8ZE+ybdZuE6LoJYOZuNhyBgCkCmNmUXAQLgW4C7Jm72ag+QvFLtTxVgmNmPgA7++YDoPBWbwKlxxEzc2+J6l9AJbu+BhojYGbWqAoxQWAAAcw8ABqXQEAjAcysURVigsAAAuyZB0CrfQmV7NoK6OwfM+vUpTMqil+daJo/wDK7+SEAAC8EMLMXJcmjeQKYuWMIlL7h3xEGbxsnUHIcsWc2NlgofhkTrGC4zMwFYdMVBHISYGbOSTdD21SzM0B10iQz8wohS+53VoTBIQgkEcDMSZg4CQLDCZSaFDDzcI24EgKqCLBnViXH+mCoZq9n1OoZzMxrlC+1RFoTBochsJYAM/NaRHpOoJKtRwuNkTAza1SFmNwRKLHCw8zuhg0JtUoAM7eqPHm7I8CeOUHSxRKpdiW5dv8JqDilIgHMXBF+n64pfvWh1ea5LLPb1J2sKxDIXQTDzBVEpUsI5CCAmROp5v6tmhgGp0GgkwB75k40ug5Q/NKlh8ZomJk1qkJMEBhAgJl5ALTSl1DJLk3cZn/MzDZ1I2oI7COAmfch4Q0I2CSAmW3qRtQQ2EeAPfM+JPreoJKtTxONETEz91CFe809YHHqgQRyjiFm5gOR63qTarYuPbRGw8ysVRnigkBPApi5JzBOh4BWApi5pzI59zw9Q+F0CPwfAfbMBgYE1WwDIikIETMrEGFVCBS/VtHh2DIBltmMBwg4IYCZnQhJGhDAzIwBCDghwJ5ZuZAUv5QLNCC8xR2RqbVlZh4hxoBLuQQC2QgwM2dDO75hKtnjGbbUAjNzS2qTq2sCmNm1vCTXEgHM3JLa5OqaAHtmxfJOXe1UnCqhTUCAmXkCiDQBAQ0EmJkHqpDrXuEiHCrZA4Vp+DJm5obFJ3VfBDCzLz3JxgiBHN+Lx8xGxCdMCKwjwJ55HaFKx6lkVwJvuFtmZsPiEToElgkwMyscD1SyFYpiICRmZgMiESIEUghg5hRKnAMBAwQwswGRCBECKQTYM6dQKnwOlezCwJ10x8w8QsgcN/5HhMOljRNgZlY2AKhkKxPEUDjMzIbEIlQIrCKAmVfR4RgEDBHAzIbEIlQIrCLAnnkVnQrHqGRXgO6kS2ZmJ0KShj0CU98NYWZWNgYsV7M/+MS5tTR/+eWLa8/hhGEEmJmHceMqCKgjgJnVSUJALRGYskaCmVsaOeTqmgB7ZmXyTvmbWllqhJOZADNzZsA0D4FSBJiZS5FO6MdyJTshPU7JTICZeSRglsUjATZ++d5f4GNwYOYx9LgWAooIsMweKUb8zcrsPIfIB0JGDqaRl2PmkQCnvJxfClPSbK8tltntaU7GTglgZqfCklZ7BDBze5qTsVMCmNmpsKTVHgHM3J7mZOyUAGZ2KixptUcAM7enORk7JYCZnQpLWu0RwMztaU7GTglgZqfCklZ7BDBze5qTsVMCmNmpsKTVHgHM3J7mZOyUAGZ2KixptUcAM7enORk7JYCZnQpLWu0RwMztaU7GTglgZqfCklZ7BDBze5qTsVMCmNmpsKTVHgHM3J7mZOyUAGZ2KixptUcAM7enORk7JYCZnQpLWu0R+B/KMagaSKWDvQAAAABJRU5ErkJggg==;" vertex="1" parent="1">
          <mxGeometry x="-281.9" y="470" width="281.9" height="312.05" as="geometry" />
        </mxCell>
        <mxCell id="JWXI3P4WpeoxLLxnXd8x-7" value="" style="shape=image;verticalLabelPosition=bottom;labelBackgroundColor=default;verticalAlign=top;aspect=fixed;imageAspect=0;image=data:image/png,iVBORw0KGgoAAAANSUhEUgAAAcIAAAGgCAYAAAA5JGcUAAAABHNCSVQICAgIfAhkiAAAHy1JREFUeF7t3d2rZeddB/B1JpM2E1OLVK1a8EJ60ztJRGONiij0QkSmKlgVr+JFcuEL/h1eaCGCiZCWVqFoR8Eiar2ooqRgeqmgN1aUFpEaCUnzPj7PnNmZc9asdfZae61nreflc8hk5uy9Xp7n83v2/p5n7f2cfXb7hVu3u/B19vjNLvw7/tMXAQIECBBoRuDaoacxBGMY+iJAgAABAi0JvBuEsdPCsKXS6ysBAgQIRIFLQYiEAAECBAi0JnBfEJoVtjYE9JcAAQJtC9wXhJFDGLY9KPSeAAECLQkMBqEwbGkI6CsBAgTaFhgNQmHY9sDQewIECLQicGUQCsNWhoF+EiBAoF2Bo0EoDNsdHHpOgACBFgQmBaEwbGEo6CMBAgTaFJgchG3y6DUBAgQI1C4wKwgtq6h9OOgfAQIE2hOYFYSRRxi2N0j0mAABAjULzA5CYVjzcNA3AgQItCdwUhAKw/YGih4TIECgVoGTg1AY1jok9IsAAQJtCSwKQmHY1mDRWwIECNQosDgIhWGNw0KfCBAg0I7AKkEoDNsZMHpKgACB2gRWC0JhWNvQ0B8CBAi0IbBqEF4Mw7PHb7YhqJcECBAgULTA6kF4CEML74seFxpPgACBZgSSBOFBTxg2M450lAABAsUKJA3CqCIMix0bGk6AAIEmBJIHYROKOkmAAAECxQpsEoRmhcWODw0nQIBA9QKbBGFUFIbVjyUdJECAQJECmwWhMCxyfGg0AQIEqhfYNAiFYfXjSQcJECBQnMDmQSgMixsjGkyAAIGqBa7v1buLrxnGf/siQGB9gZx/w5PH/fr1dsTTBHYLwtjcwwMhPlg9KE4roL3aFJgacDk/rsb6kHOb2xxt9ff6LAy62zl0UxjmUAVt2FtgLBz67ao5LMYMau5zv76+31YgmyCM3RaG2xbf2fYX6D/pe7Ifr0nf6rAls3Ez90wTyCoIY5OF4bTC2ao8gaEnck/iy+vIdblh60fILggPYRj/9iTR+vAst/+enPet3UV/zyP71qKEs2cZhAc4s8MShlB7bRwKub6CJ9++yH7fC8X97Es5c9ZBGBGFYSlDqc52DoWekCu31kKx3NqlbPmuyydSdsyxCcwVEHpzxcrb/uIPMUKxvPqlanH2M8LY8cOA9ZN4qmHQ5nH7wWd8tTkOPMe0W/dDz4sIwncbGxbexy9PWAbuXIF+6BlHcwXb2N4P3W3Uud/LooLw0Pg4WIVhv5S+vyjQDz7jxfiYI+Cy6Ryt8rctMggjuzAsf/Ct1YN+6MXjCr61dB3HLLH+MVBsEMbSCMP6B+hQD/vBJ/SGlNy2toBAXFs0n+MVHYSR0eDMZzClaongSyXruKcI+AH8FLW89yk+CA+8AjHvgTa1df3Qi/uZ8U3Vs91WAp5vtpLe5jzVBOGBywDdZuCsdZZ+8Am9tWQdZwsBzzdbKKc/R3VBKBDTD5olZxB8S/Tsm6uAQMy1MtPaVW0QXgxEs4xpg2HpVv2QGzqeWgypuK0WgfgYMMbLq2b1QRhL4qe1NAOzH3yeANI4O2pZAp5vyqrXnYwIT15ZfEL9FnSeuJcp81vmZ++2BMwOy6l3U0HYL4uf3C6L9IOu72XG1xfxPYGrBTzHXO2Ty71NB+GhCEMB0MKTfr/fLfQ5lweedrQlYHaYd70F4Uh9agiJfh/6XRV8fRHfE0gnYHaYznbpkQXhRMGhUNkjSIbaMdaFPdo31ha3EyBwLmB2mN9IEIQLajInlBac5tKuwm0tScchsJ+A2eF+9kNnFoRDKm4jQIDABgJmhxsgTzjFtQnb2IQAAQIEEgjEKzx7XFlK0JWiDykIiy6fxhMgULrAIQwF4n6VFIT72TszAQIE7gjEMDQ73G8wCML97J2ZAAEClwSE4T4DQhDu4+6sBAgQGBQQhoMsSW8UhEl5HZwAAQLzBYThfLMlewjCJXr2JUCAQCIBYZgIduCwgnAAxU0ECBDIQUAYblMFQbiNs7MQIEDgJAFheBLbrJ0E4SwuGxMgQGB7AWGY1lwQpvV1dAIECKwiIAxXYRw8iCAcZHEjAQIE8hMQhmlqIgjTuDoqAQIEkggIw/VZBeH6po5IgACBpALCcF1eQbiup6MRIECAQGECgrCwgmkuAQIEooBZ4XrjQBCuZ+lIBAgQ2FRAGK7DLQjXcXQUAgQI7CIgDJezC8Llho5AgACBXQWE4TJ+QbjMz94ECBDIQkAYnl4GQXi6nT0JECCQlYAwPK0cgvA0N3sRIEAgSwFhOL8sgnC+mT0IECCQtYAwnFceQTjPy9YECBAoQkAYTi+TIJxuZUsCBAgUJSAMp5VLEE5zshUBAgSKFBCGx8smCI8b2YIAAQIEKhYQhBUXV9cIECAQBcwKrx4HgvBqH/cSIECAQOUCgrDyAuseAQIEooBZ4fg4EITjNu4hQIBAVQLCcLicgnDYxa0ECBAg0IiAIGyk0LpJgACBKGBWeP84EIT3m7iFAAECBBoSEIQNFVtXCRAgEAXMCi+PA0HocUGAAIEGBYThvaILwgYfALpMgAABAoLQGCBAgEDzAmaF50PAjLD5hwIAAgRaFhCGXScIW34E6DsBAgSCQOthKAg9DAgQIECgaQFB2HT5dZ4AAQLnAi3PCgWhRwEBAgQINC0gCJsuv84TIEDgnkCrs0JB6FFAgAABAk0LCMKmy6/zBAgQuCzQ4qxQEHoUECBAgEDTAtdP6f3vP33z6G5PPXPr6DY2IECAAIH8BA6zwvh3C19mhC1UWR8JECBAYFRAEI7SuIMAAQIEWhAQhC1UWR8JECAwU6ClN82c9BrhTE+bEyBAYHWBx547/l6FF59s4zWu1XEbO6AZYWMF110CBAhMFWhlVigIp44I2xEgQIBAlQKCsMqy6hQBAgTWEWhhVigI1xkrjkKAAAEChQqc9GYZi+ULrbZmEyBA4ASB2hfYmxGeMCjsQoAAgdYEar5EKghbG836S4AAAQKXBAShAUGAAAECkwRqnRWe9BrhJDEbESBAIKGAxfIJcRs7tBlhYwXXXQIECCwRqHFWKAiXjAj7EiBAgEDxAoKw+BLqAAECBAgsERCES/TsS4AAAQLFCwjC4kuoAwQIENhWoLbXCQXhtuPH2QgQIEAgMwFBmFlBNIcAAQIEthUQhNt6OxsBAgQIZCYgCDMriOYQIECgBIGaXicUhCWMOG0kQIAAgWQCgjAZrQMTIECgboFaZoWCsO5xqncECBAgcERAEB4BcjcBAgQI1C0gCOuur94RIECAwBEBQXgEyN0ECBAgMC5Qw+uEgnC8vu4hQIAAgQYEBGEDRdZFAgQIEBgXEITjNu4hQIAAgQkCpV8eFYQTimwTAgQIEKhXQBDWW1s9I0CAwGYCJc8KBeFmw8SJCBAgQCBHAUGYY1W0iQABAgQ2ExCEm1E7EQECBAjkKCAIc6yKNhEgQKBAgVJfJxSEBQ42TSZAgACB9QQE4XqWjkSAAAECBQoIwgKLpskECBAgsJ6AIFzP0pEIECBAoEABQVhg0TSZAAECuQqU+IYZQZjraNIuAgQIENhEQBBuwuwkBAgQIJCrgCDMtTLaRYAAAQKbCAjCTZidhAABAu0IlPY6oSBsZ2zqKQECBAgMCAjCARQ3ESBAgEA7AoKwnVrrKQECBAgMCFwfuM1NBAgQOFng7PGbl/aNrxf5IpCzgBlhztXRNgIECBQqUNIbZgRhoYNMswkQIEBgHQFBuI6joxAgQIBAoQJeIyy0cJpNIFcBrwnmWhntGhMwIxyTcTsBAgQINCEgCJsos04SIEBge4FS3jAjCLcfG85IgAABAhkJeI0wo2JoCoFaBKwlrKWSbfTDjLCNOuslAQIECIwICMIRGDcTIECAwHKBEl4nFITL6+wIBAgQIFCwgNcICy6ephPIVcBawlwro11DAmaEQypuI9CwQHyjS//NLg1z6HoDAoKwgSLrIoE5AmZzc7RsW4OAIKyhivpAYGWBEt7gsHKXHa5hAa8RNlx8XSdwTOBwiXTuLLF/aXXu/sfa5X4CawqYEa6p6VgEKhI4hJfZYUVF1ZVBATPCQRY3EiBwUaAfhmZ4xkdNAoKwpmrqC4GFAv1LmvFwY7cJw4XYDe1++EEq1zEjCBsajLpKYCjULqoMPVHFfYZuv0pz7vZXHct9BFILCMLUwo5PYAeBscATUDsUwymzFxCE2ZdIAwkMC4yFXdx6zcDL/bLWsI5bCUwXEITTrWxJYHOBrcJu8445IYGMBARhRsXQFAL94FtzZrelbi392NLMufYTEIT72TszgfvekVlq8CklgZIFrp/yjrCSO6ztBPYUMFPaU9+5CQwLXD+8EB7v9tPoMJJbCZwqIPhOlbMfge0EzkL43T6c7uKDVihuVwRnKlOgH3JDvajpceTq0VCF3TZHINcxdOk1wosP2sODvKYH8pyC2ZZAX6AffB4bfSHfEyhTYPTNMocHuUAss7BavUygH3rxaIJvmam9CeQqMBqEhwYLxFxLp11rCvSDT+itqetYBPIWOBqEY4HYvz3vbmodgXsC/dCL9wi+4yMkGs15jafvzPi4sS32EZgchIfm9QfzxcHev2+fLjkrgXsC/SfjeI9xaoQQIHBRYHYQ9vkuPqkIxb6O77cUEHpbajsXgXoEFgfhRQqhWM/AyL0nQi/3CmkfgXIEVg3CKaEYt3FpqpwBkkNLhV4OVZjfBo/z+Wb22EcgWRBe7E7/AeGJbZ9il3BWY6OEKmkjgboENgnCPlk/GOP9ngD7SvV/r+b111gPCZQgsEsQDsEcC8eh+4eO47Y8BYTeeV0ee+7mpQK9+OStPAumVQQaEsgmCIfMx958c9hWOA6p7XvbUODFFqnVvnXZ4+z9sWAM7FEF55wikHUQXuzA0IOo/0A7tv0UENsMC1xlzX3YrMZb4+MwjoWhx2ON/dWnNgSKCcKhclz1YBx74r5qn6FztHYbt9Yqrr8EthPI9QepooPwqvKNBV6LT/RjfR7yG3Mb2tZt8wW8JjjfzB4EUgtUG4RjcGNP9HPCYuzYx27f69xj5z3WXvcTWCJg3C3Rs++WAs0F4RjuFg/asbDd4txj/Xb7/gLeSbp/DbSgbQFBuGH9Bd6G2E5FgACBiQKCcCKUzQgQmC/Qvwrih8H5hvZIL3At/SmcgQABAgQI5CtgRphvbbSsEQHvJG2k0LqZrYAZYbal0TACBAgQ2ELAjHALZecg0KiA1wQbLXxh3RaEhRVMc9sQsKSijTrrZR4CLo3mUQetIECAAIGdBAThTvBOS4AAAQJ5CLg0mkcdtIJAMQLxdb+pn0BhHWExZW26oYKw6fLrfK4CllTkWhntqlHApdEaq6pPBAgQIDBZwIxwMpUNCewn4F2k+9k7c/0CgrD+Gushgd0ErCPcjd6JZwi4NDoDy6YECBAgUJ+AIKyvpnpEgAABAjMEXBqdgWVTAnsJeBfpXvLO24KAIGyhyvpIYEcBawl3xHfqSQIujU5ishEBAgQI1CpgRlhrZfWragHLKaour85tLGBGuDG40xEgQIBAXgJmhHnVQ2sIVCdgLWF1Ja2uQ2aE1ZVUhwgQIEBgjoAZ4Rwt2xLIRMByikwKoRlVCJgRVlFGnSBAgACBUwXMCE+Vsx8BApMErCOcxGSjHQUE4Y74Tk1gTQFLKtbUdKyWBFwabana+kqAAAEC9wkIwvtI3ECAAAECLQm4NNpStfWVwA4C1hHugO6UswQE4SwuGxPIV8CSinxro2V5C7g0mnd9tI4AAQIEEguYESYGdngCewl4F+le8s5bmoAgLK1i2kugMAHrCAsrWIPNdWm0waLrMgECBAjcExCERgMBAgQINC3g0mjT5df5mgW8i7Tm6urbmgKCcE1NxyJA4D4B6wjvI3FDZgIujWZWEM0hQIAAgW0FzAi39XY2ArsIWEqxC7uTFiJgRlhIoTSTAAECBNIImBGmcXVUAgQuCFhLaDjkLGBGmHN1tI0AAQIEkguYESYndgIC+wtYSrF/DbQgXwEzwnxro2UECBAgsIGAGeEGyE5BoCaB+Hrf3LWBc7evyUtf8hcQhPnXSAsJrC5gOcXqpA5YsIBLowUXT9MJECBAYLmAIFxu6AgECBAgULCAS6MFF0/TCZQiYB1hKZVqs52CsM2663XjApZTND4AdP+SgEujBgQBAgQINC0gCJsuv84TIECAgEujxgABAl3q5RTWERpkOQuYEeZcHW0jQIAAgeQCgjA5sRMQIECAQM4CLo3mXB1tI1CRgCUUFRWzsq4IwsoKqjsEThGwnOIUNfvUIuDSaC2V1A8CBAgQOElAEJ7EZicCBAgQqEXApdFaKqkfBFYSSLWUwhKKlQrkMKsLmBGuTuqABAgQIFCSgCAsqVraSoAAgYIFTvlQ5y26Kwi3UHYOAgQIEMhWwGuE2ZZGwwjsI5BqKYV1hPvU01mPC5gRHjeyBQECBAhULCAIKy6urhEgQIDAcQGXRo8b2YJAswKpllI0C6rjWQoIwizLolEE6hOwjrC+mtbSI5dGa6mkfhAgQIDASQKC8CQ2OxEgQIBALQIujdZSSf0gkEAg1VKKBE11SAInCwjCk+nsSKA9gaW/GcRawvbGTAk9dmm0hCppIwECBAgkExCEyWgdmAABAgRKEBCEJVRJGwlkIHBYUxj/7q8vzKB5mkDgZAGvEZ5MZ0cCBOYKWEs4V8z2WwiYEW6h7BwECBAgkK2AIMy2NBpGgAABAlsIuDS6hbJzEKhAIK4pPAuvD1pbWEExdeGSgCA0IAgQ2EzAOsLNqJ1ohoBLozOwbEqAAAEC9QmYEdZXUz0ikFSgv3TCpdKk3A6+gYAZ4QbITkGAAIHWBZb+er6UfmaEKXUdmwCBSwLWERoQOQqYEeZYFW0iQIAAgc0EzAg3o3YiAnUIeE2wjjrqxT0BM0KjgQABAgSaFjAjbLr8Ok9gewFrCbc3d8arBQTh1T7uJUDgCgFLKa7AcVcxAi6NFlMqDSVAgACBFAKCMIWqYxIgQIBAMQIujRZTKg0lUIeAtYR11LGmXgjCmqqpLwQ2FrCUYmNwp0si4NJoElYHJVCfQM6/Iqs+bT3aUsCMcEtt5yJAoLN8wiDITcCMMLeKaA8BAgQIbCpgRrgpt5MRqFPAesI669pKr8wIW6m0fhIgQIDAoIAZ4SCLGwkQSCVg+UQqWcc9VcCM8FQ5+xEgQIBAFQJmhFWUUScI7CtgPeG+/s6+TMCMcJmfvQkQIECgcAEzwsILqPkEShOwjrC0itXfXkFYf431kMCmApZSbMrtZCsIuDS6AqJDECBAgEC5AoKw3NppOQECBAisIODS6AqIDkGAwHQB6winW9lyGwFBuI2zsxBoRsBSimZKPbmjuX9yiUujk0tpQwIECBCoUcCMsMaq6hOBzAUsoci8QI01TxA2VnDdJbCVgGUUW0k7z1IBl0aXCtqfAAECBIoWEIRFl0/jCRAgQGCpgEujSwXtT4DAbAFLKGaT2SGhgCBMiOvQBFoWsIyi5eqX1XeXRsuql9YSIECAwMoCgnBlUIcjQIAAgbIEXBotq15aS6AKAesIqyhjNZ0QhNWUUkcI5Cfw5a/cvNSoH3r0Vn6N1KLmBVwabX4IACBwXCD33xV5vAe2IDAuIAjHbdxDgAABAg0IuDTaQJF1kUBuAtYR5laRttsjCNuuv94TSCrgNcGkvA6+koBLoytBOgwBAgQIlCkgCMusm1YTIECAwEoCLo2uBOkwBAiMC/SXUTz+9OVtvWY4buee9AJmhOmNnYEAAQIEMhYQhBkXR9MIECBAIL2AIExv7AwECBAgkLGA1wgzLo6mEahFoL+M4vYLtfRMP2oQMCOsoYr6QIAAAQInCwjCk+nsSIAAAQI1CLg0WkMV9YFAgQI+iqnAolXaZEFYaWF1i0COAhfXE77wTNf11xPm2GZtql/ApdH6a6yHBAgQIHCFgCC8AsddBAgQIFC/gEuj9ddYDwlkK+BXq2VbmqYaJgibKrfOEthXoL+ecN/WODuBcwGXRo0EAgQIEGhaQBA2XX6dJ0CAAAGXRo0BAgQ2FRj7SCavF25aBie7IGBGaDgQIECAQNMCgrDp8us8AQIECAhCY4AAAQIEmhbwGmHT5dd5AtsL9JdQ+Eim7WvgjJcFzAiNCAIECBBoWkAQNl1+nSdAgAABl0aNAQIEdhPwUUy70TvxBQFBaDgQILC5wGEtYfwopvjl45g2L4ETXhBwadRwIECAAIGmBQRh0+XXeQIECBBwadQYIEBgdwG/Xm33EjTdAEHYdPl1nsA+Av21hPu0wlkJnAu4NGokECBAgEDTAoKw6fLrPAECBAi4NGoMECCwi8DQxzF5rXCXUjR/UjPC5ocAAAIECLQtIAjbrr/eEyBAoHkBQdj8EABAgACBtgW8Rth2/fWewG4C/SUUPo5pt1I0f2IzwuaHAAACBAi0LSAI266/3hOYJBDfzdn/pIhJO9qIQAECgrCAImkiAQIECKQT8BphOltHJkDgiEB/LWH/dcMju7ubwCoCgnAVRgchQKAlgceeu3m0uy8+eevoNjbIQ0AQ5lEHrSBA4I7AWfhzuwiLq4JuSlAW0clGGuk1wkYKrZsEchf4g6e77tZn782invipX869ydpXiYAZYSWF1A0CpQl8/+M3u5/426576SfP54Dxp/JPf/JT3Z+FP9/6V133A39dWo+0t1QBM8JSK6fdBCoQeO2NrnvoC+HPX5yHYfi2uxG+f/Od8I8yrpBWUAVdMCM0BggQ2EXg77/42e59jzx859yvdW93T3U/3/1bCMEvfODe5dEfCbPGB8L9fxfWMfoikEpAEKaSdVwCBEYFnggBFyd8/xAC7tfCv98Krw/G78/Ce2V+65Wb3e/c+Hz39ttv39nfxHCU0R0rCbg0uhKkwxAgME/gq2HzHwwh+MgXu+6Nnz4PvPeHZ6R3QvI98dGPd7/9o7/Q/eu8Q9o6U4HcfzORGWGmA0ezCNQs8Prdzt349a775z/vug+FN8w8Et4g8+3hRcKv/mXX/ePdS6GfvDtzzNHCEokcq3JamwThaW72IkBggUC83Pm94c+Xfun80ujrIQi/8bGuezCE4uu/G+74xPnBc/3E+qvWEC5gsetOAoJwJ3inJdCywD9dePPLs+Hfv/j18zfFPPJm173SMoy+7yLgNcJd2J2UAIGLAnG5xPvDEor3hGek87fI8CGwnYAg3M7amQgQGBF4JFwrfSckYLxEFZcQ+iKwpYBLo1tqOxcBAu8KXI+/WSZ8991hieCXfy4sog//jq8d/tjz39P9ytfCu0nDj+nP/myYIVpDaNQkFjAjTAzs8AQIjAt8XwjB/w0f5PDhPw7vFg2b/Uf48/Y7r3YvhdvuLiMc39k9BFYSMCNcCdJhCBCYLxDDLl4KfSv879Hw92t3/rx057bbXiycD2qPkwTMCE9isxMBAksF4mXQ+LpgDL33vdx1H/lI1703/PvNcNvhvqXnsD+BKQJmhFOUbEOAQBKB2yEFYxC+GZLvM/9yfooP3r3tnfD3h5Oc1UEJXBYQhEYEAQK7Cbwdwi7O/mIgfuL5+I+u+79X784Iw203fm+3pjlxQwIujTZUbF0lsEQgye+LDMEXg/D18Mu2YxjGP3EtYbztjfC/+Hn1vgikFhCEqYUdnwCBcYGQdPFjlh6KIXg3FK+HGz74/PnC+jPPUON27llNwKXR1SgdiACBuQLXQhB+x6fDa4RxEeHdr+vxWSnc/nAIQUE4V9T2pwgIwlPU7EOAwCoC10LYfelXLx8qXg794c90XbzvWpwu+iKQWMCFh8TADk+AwLhADLof/6Pw+YNhVngjbPbv4c9HPxV+1VpIw/+JQehH9XE896wmYJitRulABAhMFfhQ+PVq4WXBOzO+a3HdYAi9x0IYPhqekeL38ZPqv/aNrvuvp8Lrh93N7jW/Zm0qre1OEBCEJ6DZhQCBZQKHd4M++/Hz43xn+Ou/w59Hw/df+fy9Y8fbDx/iu+yM9iYwLiAIx23cQ4DARgIxBOPXxRD82B+GpRQPhQ/w/a6NGuE0zQoIwmZLr+ME9hX4jb8JawXDLxd9843wu0bDu0bjr1uLX/Gy6APhmen6g+HSaPj+WlxU6ItAQgFBmBDXoQkQGBb4z/Ca32++fLN75WfOP5E+ZmB8zTBmXrxsGt/F94E/DTPC8PFMr4fA9EUgpYAgTKnr2AQIjAq8/M0Qfp/rugfD32dhRhg/geIs/jaZkIJxRvj1EIKv/UnXfctbo4dwR0ECh99MFP/O7UsQ5lYR7SHQiMAz3/a58JmD73TvefB690BcNBi+zuJ10cPXC+f/ePWb8cOZfBFIJyAI09k6MgECVwi898HwImD479jXwzfCO2Z8EUgoYEF9QlyHJkCAAIH8BQRh/jXSQgIECBBIKCAIE+I6NAECBAjkLyAI86+RFhIgQIBAQgFBmBDXoQkQIEAgfwFBmH+NtJAAAQIEEgoIwoS4Dk2AAAEC+QsIwvxrpIUEshE4/HaQbBqkIQRWEBCEKyA6BAECBAiUKyAIy62dlhMgQIDACgKCcAVEhyBAgACBcgUEYbm103ICBAgQWEFAEK6A6BAECBAgUK6AICy3dlpOgAABAisICMIVEB2CAAECBMoVEITl1k7LCRAgQGAFAUG4AqJDECBAgEC5AoKw3NppOQECBAisIPD/x22D2YWs79QAAAAASUVORK5CYII=;" vertex="1" parent="1">
          <mxGeometry x="190" y="450" width="338.6" height="313.02" as="geometry" />
        </mxCell>
        <mxCell id="JWXI3P4WpeoxLLxnXd8x-8" value="" style="shape=image;verticalLabelPosition=bottom;labelBackgroundColor=default;verticalAlign=top;aspect=fixed;imageAspect=0;image=data:image/png,iVBORw0KGgoAAAANSUhEUgAAAhIAAAG9CAYAAABAn58ZAAAABHNCSVQICAgIfAhkiAAAIABJREFUeF7t3emvJWldB/Cnm2YcHAVkxAy4sGgkvBKYIDBoTJRIQFwaJDEsIwLGMInCK/8A4yujLzQRgw4gi4IKtEoQTUxETGBcENQYlzdiEI2oMLKMDszYPtU9Z/p03ao6derU8iyfm0x6blWdZ/n86pzzvU/Vuffc5bsuXQ6+shc498yLIdYy+3mYAIEhAef5kI59QwLOnSGd0/adP+3hHp2KQBMimieKLwIECBAgsKaAILGm9sJ97cKEQLEwtOYJECBA4EEBQaKwk6EJE1YnCiuq6RAgQCBhAUEi4eKcMjRh4hQ9jyVAgACBsQKCxFipDI8TJjIsmiETIEAgMwFBIrOCHTtcYeJYMccTIECAwDECgsQxWo4lQIAAAQIErhMQJCo4IaxKVFBkUyRAgMBGAoLERvBrdytMrC2uPwIECNQhIEjUUecrsxQmKiq2qRIgQGAlAUFiJWjdECBAgACBEgUEiRKrOjAnqxIDOHYlLeBvJSRdHoOrWECQqLD4wkSFRTdlAgQILCQgSCwEq1kCBAgQIFCDgCBRQ5U75mhVogPFJgIECBA4WkCQOJqsnAcIE+XU0kwIECCwlYAgsZV8Iv0KE4kUwjAIECCQqYAgkWnhDJsAAQIECKQgIEikUIWNx2BVYuMC6J4AAQIZCwgSGRdvzqELE3NqaosAAQL1CAgS9dTaTAkQIECAwOwCgsTspPk2aFUi39oZOQECBLYSECS2kk+0X2Ei0cIYFgECBBIVECQSLcyWwxImttTXNwECBPISECTyqpfREiBAgACBpAQEiaTKkc5grEqkUwsjIUCAQMoCgkTK1TE2AgQIECCQuIAgkXiBthyeVYkt9fVNgACBPAQEiTzqZJQECBAgMFHg3DMvhuYHI1/LCAgSy7gW06pViWJKaSIECBBYRECQWIRVowQIECBAoA4BQaKOOp80S6sSJ/F5MAECBIoWECSKLq/JESBAgACBZQUEiWV9tU6AAAECBIoWECSKLu98k3N5Yz5LLREgQKAkAUGipGqaCwECBAgQWFlAkFgZPOfurErkXD1jJ0CAwDICgsQyrlolQIAAAQJVCAgSVZR5vklalZjPUksECBAoQUCQKKGK5kCAAAECBDYSECQ2gtctAQLjBfythPFWjiSwtoAgsbZ4Af25vFFAEU2BAAECMwkIEjNBaoYAAQIECNQoIEjUWPUZ5mxVYgZETRAgQKAAAUGigCKaAgECBAgQ2ErgwlYdb9HvrXdePNjtR1596eAxDrgqsFuVaP71RYAAAQJ1ClQVJJoSDwWFMUGjztPErAkQIECAQLfA+eZjVb4IECBAgAABAlMEzg8tSw+FjKF9UwbiMXkKuOkyz7oZNQECBOYS6L3ZcugXwBzaN9fgtEOAAAECBAikLdAbJIZWKob2DU3XKsaQjn0ECBAgQCA/gd4gMXUqfSFjaBWj6UvImCrucQQIECBAYDuB2YNE31T6AkZz/FDIEDD6RNPZ7j6JdGphJAQIEFhbIImPf/aFjKGAMRXKRzynynkcAQIECBA4K9AZJPrewPu2n212ni1DAaPpoW9/X+9Dv0Oi7zG2EyBAgAABAv0Cs13a6LsE0be9f0iH9zQBoi9ELNHf4RE5ggABAgRSFFj7B+AUDZYeU2eQ6HuT7tveV6i+7c2klnjDH+pvaUjtEyBAgACBGgU6g8SxEH0Bo2/7UPunBIyh/k5pd2i89l0VaOwZOxsIECBQn8AsQWIK29Cbfld7p7xJWanoErWNAAECBAicLrBZkOgbelfAGAoCYwJGV5tN/81jxzy+b6y2EyBAgACB2gU6P7WRGkpfEGjGObTv0DxOeeyhtu0nQGAegaEfJObpQSsECJwikNyKxDGT6VtN6Ns+pu3dY09pY0w/jiFAgAABAiUIZB0kjl1RGBMOdm0e23YJJ4M5ECBAgACBYwWyDhJ9k+0KAacujzaPHxNE+sZUw/bGnVENlTZHAgQIXBMoMkh0FbgrXDTHjX3jax7f10ZXf7YRIECAAIEaBKoJEl3FtErRpWIbAQIECBAYL5DFpzbGT+e4I/tWGHarFH37d70c2n/caBxNgAABAgTyE6g6SPSVS0Dok7GdAAECBAhcLyBIHHFGnHop5IiuHEqAAIEzAr90x8Uz29obXvP6S+1NviewqEDV90iMlR17qWNseyUf55MbJVfX3AgQIHBWQJA4a3Jmi0sdZ0hsIECAAAECVwQECScCAQIECBAgMFlAkJhM54EECBAgkLKA+9rWqY4gsY6zXggQIECAQJECgkSRZTUpAgQIECCwjoAgsY5zVb345EZV5TZZAgQqFxAkKj8BTJ8AAQIECJwi4BdSnaLnsQQIEFhRwC+bWhFbV6MFrEiMpnIgAQIECBAg0BYQJNoividAgAABAgRGCwgSo6kcSIAAAQIECLQFBIm2iO8JEEhGwC8USqYUBkKgV0CQ6KWxgwABAgQIEDgkIEgcErKfAAECBAgQ6BUQJHpp7CBAgAABAgQOCQgSh4TsJ0CAAAECBHoFBIleGjsIECBAgACBQwKCxCEh+wkQIECAAIFeAUGil8YOAgQIECBA4JDAYJBoPsPtiwABAgQIECDQJzAYJPoeZDsBAgQIECBAoBEQJJwHBAgQIECAwGSBg0HC5Y3Jth5IgAABAgSKFzgYJIoXMEECBAgQIEBgssDBIHH5rkvBqsRkXw8kQIAAgQ0E/MG39dAPBon1hqInAgQIECBAIDeBUUHCqkRuZTVeAgQIECCwjkBvkGgvCwkT6xRELwQIECBAICeB3iDRNQlhokvFNgIECBAgUK/AUUGiXiYzJ0CAAAECBLoEjg4SViW6GG0jQIAAAQJ1ChwdJOpkMmsCBAgQIECgS+BC+3dENCsOh772VyXGHH+oPfsJECBAgACBPAUutIPAfrDY/X/7mGaqu23tT3fkyWDUBAgQIECAwBSBC+0HdQWE/XDRDhW71Yn29na7vidAgAABAgTKEzgTJJoptlcZ9kNC16UQYaK8E8OMCBAgQIDAGIHOIDH0wPbKw9hLIUNt2keAAAECBAjkKXB0kGhPsytYtFc02o/xPQECBAgQIFCGwMlBos2wf49Fs68dNNrH+54AAQIECBDIV2D2ILGjECDyPSmMnAABAgQIjBXwC6nGSjlutIBLW6OpHEiAAIHsBQSJ7EtoAgQIECBAYDsBQWI7ez0TIECAAIHsBQSJ7EtoAgQIECBAYDsBQWI7ez0TIECAAIHsBc4ECTfKZV9TEyBAgAABAqsJnAkSq/WsIwIECBAgQCB7AUEi+xKaAAECBAgQ2E7guiDhssZ2hdAzAQIECBDIUcCKRI5VM2YCBAgQIJCIgCCRSCEMgwABAgQI5CggSORYtYTH7PJYwsUxNAIECCwgIEgsgKpJAgQIECBQi4AgUUulzZMAAQIECCwgIEgsgKpJAgQIECBQi8CDQcK17VpKbp4ECBAgQGA+ASsS81lqiQABAgQIVCcgSFRX8uUmbFVrOVstEyBAIFUBQSLVyhgXAQIECBDIQOBKkPCTZAaVMkQCBAgQIJCggBWJBItiSAQIECBAIBcBQSKXShknAQIECBBIUECQSLAoOQ7J5bEcq2bMBAgQOF3gvDeA0xG1QIAAAQIEahWwIlFr5c2bAAECBAjMICBIzICoCQIECBAgUKuAIFFr5c2bAAECBAjMIHD+8l2XZmhGEwQIECBAgECNAlYkaqy6ORMgQIAAgZkEBImZIDVDgAABAgRqFBAkaqy6ORMgQIAAgZkEBImZIDVDgAABAgRqFBAkaqz6zHP2S81mBtUcAQIEMhIQJDIqlqESIECAAIHUBASJ1CpiPAQIECBwskDzqw2a1VJfywsIEssb64EAAQIECBQrIEgUW1oTI0CAAAECywsIEssbF92DGy2LLq/JESBA4KCAIHGQyAEECBAgQIBAn4Ag0SdjOwECBAgQIHBQQJA4SOQAAgQIECBAoE9AkOiTsZ0AAQIECBA4KCBIHCRyAAECBAgQINAnIEj0ydh+UMAnNg4SOYAAAQLFCwgSxZfYBAkQIECAwHICgsRytlomQIAAAQLFCwgSxZfYBAkQIECAwHICgsRytlomQIAAAQLFCwgSxZd4mQm60XIZV60SIEAgNwFBIreKGS8BAgQIEEhIQJBIqBiGQoAAAQIEchMQJHKrmPESIECAAIGEBASJhIphKAQIECBAIDcBQSK3iiUwXjdaJlAEQyBAgEAiAoJEIoUwDAIECBAgkKOAIJFj1YyZAAECBAgkIiBIJFIIwyBAgAABAjkKCBI5Vm3DMbs/YkN8XRMgQCBBAUEiwaIYEgECBAgQyEVAkMilUgmM02pEAkUwBAIECCQmIEgkVhDDIUCAAAECOQkIEjlVy1gJECBAgEBiAoJEYgUxHAIECBAgkJOAIJFTtTYcq/sjNsTXNQECBBIWECQSLo6hESBAgACB1AUEidQrZHwECBAgQCBhAUEi4eIYGgECBAgQSF1AkEi9QsZHoGKBy3ddCs39Ob4IEEhXQJBItzbJjMyNlsmUwkAIECCQnIAgkVxJDIgAAQIECOQjIEjkUysjJUCAAAECyQkIEsmVxIAIECBAgEA+AoJEPrUyUgIECBAgkJyAIJFcSdIakBst06qH0RAgQCA1AUEitYoYDwECBAgQyEhAkMioWIZKgAABAgRSExAkUquI8RAgQIAAgYwEBImMimWoBAgQIEAgNQFBIrWKJDQeN1omVAxDIUCAQKICgkSihTEsAgQIECCQg4AgkUOVjJEAAQIECCQqIEgkWhjDIkCAAAECOQgIEjlUaYMxuj9iA3RdEiBAIEMBQSLDohkyAQIECBBIRUCQSKUSxkGAAAECBDIUECQyLJohE6hFwCW2WiptnjkLCBI5V8/YCRAgQIDAxgKCxMYFSLF7PwWmWBVjIkCAQJoCgkSadTEqAgQIECCQhYAgkUWZDJIAAQIECKQpIEikWRejIkCAAAECWQgIElmUySAJECBAgECaAoJEmnXZbFRutNyMXscECBDIUkCQyLJsBk2AAAECBNIQECTSqINRECBAgACBLAUEiSzLtsygXdZYxlWrBAgQKFlAkCi5uuZGgAABAgQWFhAkFgbOpXmrEblUyjgJECCQloAgkVY9jIYAAQIECGQlIEhkVS6DJUCAAAECaQkIEmnVw2gIECBAgEBWAoJEVuVaZrDuj1jGVasECBCoQUCQqKHK5kiAAAECBBYSECQWgtUsAQIECBCoQUCQqKHK5kiAAIHKBFyyXa/ggsR61noiQIAAAQLFCQgSxZX0uAlJ7cd5OZoAAQIErhcQJJwRBAgQIECAwGQBQWIynQcSIECAAAECgoRzgAABAgQIEJgsIEhMpsv/ge6PyL+GZkCAAIGtBQSJrSugfwIECBAgkLGAIJFx8QydAAECBAhsLSBIbF0B/RMg0Cng0lsni40EkhMQJJIryToD8iK9jrNeCBAgULqAIFF6hc2PAAECBAgsKCBILIiraQIECBAgULqAIFF6hc2PAAECBAgsKCBILIiraQIECBAgULqAIFF6hTvm50bLDhSbCBAgQGCSgCAxic2DCBAgQIAAgUZAkHAeECBAgAABApMFBInJdB5IgAABAgQICBKVnQPuj6is4KZLgACBhQUEiYWBNU+AwPECAu/xZh5BYCsBQWIref0SIECAwCICgugirL2NChK9NHYQILCGQPOi3/zniwCBPAUu5Dlso54iIKVPUfOYpQUu33Wps4tduOjb3/kgGwkQWF1AkFidXIcECIwRECDGKDmGwPYCLm1sXwMjIECAAAEC2QoIEtmWzsAJECBAgMD2AoLE9jUwAgIE9gTcy+N0IJCXgCCRWL12N5i5iz2xwhgOAQIECHQKCBKdLMtv7PvI2+4GMzeaLV8DPRAgQIDA6QI+tXG64aQWBIVJbB5EgACBQQGXxgZ5FtlpRWIR1vQa9eRKryZGRIAAgRIEBIkSqmgOBAgQIEBgIwFBYiN43RIgcFbAytlZE1sIpC4gSCRYIZ/cSLAohkSAAAECnQKCRCfLehu7PuY59yc3/JS3Xj31RIAAgdoEBIkNK+4NfkN8XRMgQIDALAKCxCyM0xrxEdBpbh5VpoBgXWZdzap8AUGi/BqbIQECBKoQEEa3KbMgsY27XgkQIECAQBECgkSiZWySddeNmIkO17AIECBAoFIBQSKBwncFhub+CfdQJFAcQ1hFwJL0Ksw6IbCIgCCxCOv4Rpd+AV26/fEzdSQBAgQIlCggSGxcVasOGxdA95sLdK3IbT4oAyBAYLSAIDGayoEECCwlIFAvJatdAssLCBLLG0/uwQ2Xk+k8MDMBqxKZFcxwCewJXKCRroCf0tKtjZHNI7ALEM71eTy1QmALASsSW6h39Oknsg4Um4oV2F9t6woRng/Fln6xibmxfDHagw1bkThItPwBngDLG+shDYExKxCeD2nUyigIjBUQJMZKLXhc109kc3TnBXkORW2cKrC/ujDmXB9zzKlj8ngCBOYTECTms1ylpTE/0a0yEJ0QOCDgXD0AZDeBQgTcI5F4IXcvxu0X5eb7/Z/0Ep+G4VUisDsvm3+blQWrC5UU3jSrFrAikXj5dy/E+y/Izf/vXqj3w4QX7cSLWeDw2mHWOVhgkTOY0u71MIOhFjlEQSKxsg49Ib4l/pT3VzFENF/7YWI3hd2LuhfzxIpa2HCE18IKajoEThQQJE4EnPPhQyHi+TFE3Pb+4d52AWL/hX6ozeHW7CVwTUB4cDYQINAncC6++Vzu22n79gLPiQHill8L4Vy8m+UrvjKED70gPLgq0YyuLyjsb/cmsH0dcxnB/rmyP2arXLlUsM5x9r0O1qmx/qytSKxvPqrH74oB4uY3hvDIXw7h8y8N4Yb4qEe8L4Tv/MMQvi7u+5eBSxztDvbfBLreKLxJtMXq+l7QrKveZktgbgFBYm7RE9v77l2AeEMI97wqhIfE9m5+Z/w3Vur++0O49Jy4CtHqo+t+ib5hdIWGrnDRPL7r2L52bU9boK/G6px23YyOQA4CgkQCVXpyDA/fFMdxz2+F8DVvi/++/Oqgbo6XNJqv/4sXn978gyG87FtD+Ob4/Qfif/urEs0xx4SJK43uffUFBj+ptqXy+l798qqX0RLIVUCQSKByfxcvU7z00xfD/ffGyxcPD+Gmd8XVh/tigIgrEG+NlzVe9JSrg3z7n4XwyneH8A8vCg9e2lhy+Icuiez67gsiS45N21cFrDQ4EwgQ2FpAkNi6Ag/0/5fPD+HJ8R6Iz8Tw8Ih4Y+UbPxEDxAMrEh/8WAgveWsID22qFfe/4D3dgz5lVaK7xWtbh8LC0JvZfrtDbRzqv5b9Yy13HkxrOTPMs0+gec54HvTprLNdkFjH+WAvzarEa++9GN75HSE89xkhvPBPQ4iLD+FlMUC8/fZ4X0S8vNHcI3E5/tv8dyE+ee574IbLg40vfMDYJ/Exb5Jj21x4arM0X+u8Z8HTCAECyQsIEgmV6N0xRHwqjudtMUQ87RdDuP2RVy9vNEP88A/H/4//NjdfPjuuVNz+G90D361KdO/ddusx4eCYN99tZ3W492Pmfbg1RxAgQCAtAUEioXo0H+ls3kBvacb0wEczPhxXIx7/wLfPuDOE83H7PfH+iS+P2x4Sj70/kVWJuRm9+c4tqj0CBAgsI+CPdi3jOrnV5g20WZX4vv+52sSXxX+e9aYQnh5/p8S5GCK+ELffHVcnPhVvwrz9Hd3deBPudrGVAAECBOYXECTmNz25xWaV4b1xyaFZlHjqW0L43/hpjt3XTc1SRPxqLnM090o0qxK+CBAgUKOAGy3TqLpLG2nU4cwoPvqa+Iuo4taYFUKT9m6MqxJXrnbEbx72+hDuvSOEZtGiCRS+CBAgQIDAVgJWJLaSP9DvfR9+T/j3Xwjhq+OKRBMWPhkTxbl4p+U7XhHC+5oQ8SshfO4lIbwq/hIrqxIHMO0mQIAAgcUEBInFaE9r+Fy8IeJvfiKEv7/76krEjfHXZb8v3hvxtNjs7Y8K4Za4PLFbobjyb8dXSZ986JieTQQIECCQgIAgkUAR+obw1Cc9MVyOFXpMvKmyCQu3vfnq5Yy//XT8HROvjvdOxF+nfV/8LZfN10Nve+F1zTQ3XLrpsk/WdgIEchdwf0Q6FRQk0qnFmZH8xVt+Lvz1j4fwj5+Pv4Cq2fsjcYUi/vOkB458wpceF278nRgmYmj40od6ft3lmVZtIECAAAEC8wkIEvNZLtLSYx99c7j3R+OqRPw1l02xXvKrjw7xL4mHx8X/Ltz8z+Fnb443SfgiQIAAAQIbCQgSG8GP7fYT770zxD+1Ef4pfgT0sb8dwn+/4j/CrfHPij/3d2OwiNW7499ePLYpxxEgQIAAgdkFBInZSedv8Asf/M3wR/ETGm+4Jf5+iab5H4r3SsTfbnn398b7JFo54lnx90p8m98tMX8RtEiAAAECnQKCRCdLWhtvvOGh1/0q7PhHQsMHvhDCo94fwg3x/3efznje634qxD8a6osAAQJFC7jRMq3yChJp1WP0aJ768niZI17ueNQfhPDKeMPl6z5/MfznXR8Nf/zrP3+ljW+3KjHa0oEECBAgMF1AkJhut+kj4+0S4b9+4Orf3/ji91/9eOifx09vfOMTvyF8PO77k0L/mNem6DonQIAAgTMCfkX2GZJ0NzTLeV8bh3fvIx8eXvauz4b46yTCx+8J4avivz9907VPbzS/WtsXAQIEShRwWSO9qgoS6dVkcESfjHuffvdnw2s/8/rwhBffEeL9lld+WdVr7n5xuP95ITz890J49u+H8JQYOj5mVWLQ0k4CBAgQOF3ApY3TDVdrYfebKv819vj4r3/MlX7fGyv4ufjvhRgimkBx7/NDuOlhQYhYrSo6IkBgLQGrEWtJH9ePFYnjvJI4ulmVaL5+LH5qo/mLXnd/z9Xvm1T4JqsQD+j4hwABAgTWEBAk1lCesY/dqkRz6eK2+ImNe+NKxE2x/fi3vcJb7vJbLmek1hQBAgQIjBA4F9+Y4h+o9pWjwE9+8WL4mRsuXRn6+We9MFy+fK2U/mBXjhU1ZgIEhgRc2hjS2W6feyS2sz+5512IaBraDxEnN6wBAgQIJCYgRCRWkL3hCBLp1sbICBAgQIBA8gKCRPIlMkACBAgQIJCugJst063NUSNzT8RRXA4mQCAjAZc10i6WIJF2fSaNbvdHvHYPFjImMXoQAQIECIwQcGljBJJDCBAgQGAbAasR27gf06sgcYyWYwkQIECAAIHrBAQJJwQBAgQIECAwWcA9EpPp0n2geyLSrY2RESBAoDQBQaK0irbm48bLwgtsegQKFnB/RB7FdWkjjzoZJQECBAgQSFJAkEiyLAZFgAABAgTyEBAk8qiTURIgQKAqAZc18im3eyTyqdWkkbrxchKbBxEgQIDASIEig8Std148OP2PvPrqn98+eGBhB7j5srCCmg6BAgWsRuRV1CKDRFOCoaAwJmjkVUajJUBgCYExrxVDrzVLjEmbBFITcI9EahUxHgIECBAgkJGAIJFRsQyVAAECpQu4rJFfhYu9tJFfKdYZsZsv13HWCwECBGoRECRqqXTHPN142YFiEwECmwlYjdiM/qSOXdo4ic+DCRAgQIBA3QKCRN31N3sCBAgkIWA1IokyTBpEsZc2xnxsa5KYBxEgQIAAAQIPChQZJHyue9wZ3r7x0j0T49wcRYDAvAJWI+b1XLu1IoPE2oj6I0CgTAE/lJRZV7OaV8A9EvN6ao0AAQIECFQlIEhUVW6TJUCAQFoCLmukVY8po3FpY4paoY9p3zNR6DRNiwABAgRmFBAkZsQsrSk3X5ZWUfMhkJaA1Yi06jF1NC5tTJXzOAIECBCYLCBETKZL7oGCRHIlMSACBAgQIJCPgCCRT62MlAABAkUIWI0ooowPTsI9EmXVc9bZuPlyVk6NESBAoEgBQaLIsi4zKTdfLuOqVQI1CViNKK/aLm2UV1MzIkCAAAECqwkIEqtR64gAAQJ1C1iNKLP+gkSZdTUrAgQIECCwioB7JFZhLqOT9s2X7pkoo65mQWANAasRayhv04cViW3c9UqAAIFqBISIskstSJRdX7MjQIAAAQKLCggSi/JqnAABAnULWI0ov/7ukSi/xovNsH3PRNOR+yYW49YwAQIEkhSwIpFkWQyKAAEC+QtYjci/hmNmIEiMUXIMAQIECBwlIEQcxZX1wYJE1uUzeAIECBAgsK2AeyS29S+u9677JoqbpAkRIDAoYDVikKe4nYJEcSVNa0JuvkyrHkZDYGkBIWJp4fTad2kjvZoYEQECBLIUECKyLNvJgxYkTibUAAECBAgQqFdAkKi39mZOgACB2QSsRsxGmV1D7pHIrmR5Dbjr5kv3TeRVQ6MlQIDAkIAViSEd+wgQIEDgoIDViINERR8gSBRdXpMjQIDAsgJCxLK+ObQuSORQJWMkQIBAggJCRIJF2WBI7pHYAL32Ltv3TbhnovYzwvxzFBAicqzaMmO2IrGMq1YJECBQrIAQUWxpJ01MkJjE5kEECBCoU0CIqLPuQ7MWJIZ07CNAgAABAgQGBdwjMchj5xoC7Xsmmj7dN7GGvD4IHCdgNeI4r1qOtiJRS6XNkwABAicICBEn4BX+0PPtn/wKn6/pESBAgMCRAkLEkWCVHW5ForKCmy4BAgSOERAijtGq89hz8fr0ZSdKncXPbdbt1bOueytym5PxEkhZwHtDytVJZ2xXViSaF+T2i3Q6QzQSAgQIEFhbQIhYWzzf/h68tCFM5FtEIydAgMCcAkLEnJrlt3XdPRLCRPkFN0MCBAgMCQgRQzr2dQlcuUeivcOJ1BbxfaoC7Uty7ptItVLGlYOA1/4cqpTeGH1qI72aGBEBAgRWFxAiVicvpsPOIOESRzH1NRECBAgcFBAiDhI5YECg91dk78KEpeIBPbuSFXDJI9lXwrYwAAAHwklEQVTSGFhiAkJEYgXJcDi9QaKZizCRYUUrG7KgW1nBTXdWASFiVs5qG+u8tLGv4TJHteeGiRMgULCAEFFwcVee2sEg0YxHmFi5KrojQIDAggJCxIK4FTbd+fHPPgcnX5+M7TkIuG8ihyoZ45ICu+eAS4JLKtfX9qgViR2LlYn6ThAzJkCgDIHdD4JCRBn1TGkWRwWJZuDCRErlMxYCBAgcFrCafNjIEdMFBj+10desT3P0ydieo4BLHjlWzZjHCLiUMUbJMacKTAoSTaf7KxOWyk4tg8evIeA8XUNZH6kIWIVIpRLlj+PoSxv7JM0Ls0sd5Z8kZkiAQF4CQkRe9cp9tCcFid3khYncTwPjJ0CgFAEhopRK5jOPoz7+eWharscdErI/FwH3TeRSKePcCXj9dS5sJTD5HomuAe+uQTuhu3RsI0CAwDICViGWcdXqOIFZLm20u3LvRFvE9wQIEFhGQIhYxlWr4wVmXZFod7u7d8Ld8m0Z3+cq4JJHrpUrb9xWfsuraa4zWjRINCj7N2IKFLmeJvWN27laX81zmbEAkUul6hnn4kFiFyaafy3B1XNimSkBAvMLeA2d31SLpwusEiR2w3Sp4/SCaSFNAZc80qxLKaOyClFKJcucx6pBoiF0qaPME6mWWbnkUUul05mnVYh0amEk3QKrB4lmGLsXYym7uyi2EiBAwOujcyAXgU2CxA5nP1D4SS+XU8Y4jxFwyeMYLcc2AgKE8yA3gU2DxA7L5Y7cThvjbQsIwm0R3x8rIEAcK+b4VASSCBINhssdqZwSxkGAwJoCAsSa2vpaQiCZILGbnMsdS5RZm6kJuOSRWkXWH48Asb65HpcRSC5I7KbpcscyBdfqugIueazrnUNvAkQOVTLGYwSSDRLNJFzuOKaUji1BwEpFCVXsnoMA0e1ia/4CSQeJHa9Akf+JZgYEahUQIGqtfD3zziJICBT1nJC1zNQlj/IrLUCUX2MzvCqQVZDoCxTNdi/MTumSBVzyyKO6+3XympRHzYzydIEsg8Ru2vtPVOn/9JNBC9sLePPZvgZTRuD1Z4qax5QikHWQ2C9C+z6KZp8X5VJOU/PoE7BS0Sez/HarD8sb6yEPgWKCxI7bKkUeJ55REshVwOpDrpUz7qUEigsS+1BWKZY6bbS7tsCU1TWrFfNVyerDfJZaKk+g6CCxK5dVivJOXDMisIaA1Yc1lPWRu0AVQWK/SFYpcj9ljb/rfKYyj4BVnHkctVKXQHVBYldeqxR1nehme03AmyULzwcCcwpUGyT2Ea1SzHlKaSsVAfdV9FfCJYt+mzX3CLVrai/XlyCxZ2uVYrkTTcsEUhAQIFKogjGUJiBI9FTUKkUPjM3VCuT806MAsd1pm/N5s51aXj0LEgfqZZXiAJDd2QlMueSR2yS9ea1bMd7reqfWmyBxREW6Vimah9fwwnwEk0MzFphyLm/9JtLu33MynxNwyvmWz+zqGakgMaHW7ZPfC9kERA+pQqD93Gg/d45FaLfXPP7UNo8dQ43Ht92Z13gW9M9ZkOi3Gb2n60nliTeaz4GZCHSd56cMfcxzZMwxp4zBY68JLGU993mjZukJCBIL1aT95Nl/krb3LTQEzRLIVmD3fPFcmbeEwsK8nlq7KiBIrHQm7L8gLvVkXmkquiFwncBcb/bt50XTiUBx/MnWdpyrPsePxCNqERAkNqh0+4ndfuI3Q2ofs8EwdUngZIH2edx1ru86GQrb+wNptzH0uHb/J08ogQaG5r/U8Ep0XMqqxnYFiQSq3vUkbb9YNMPsOi6B4RsCgU6B1M7h9ni2DiCpjcfrS+dpbOMIAUFiBNIWh3Q9qdsvPM24uo7bYrz6rFug5HOzPbf2c25o/9C+Lc6Y9ti3GIM+yxMQJDKqadeLQPuFqplO13EZTdNQExHoOrf6hjb3OTd3e33jLnE7uxKrmvacBIm063NwdF0vGlu+ARwcsAOSFOg6Z7rOrRQGPzSuoX0pjH2OMdQwxzmctLGegCCxnvVqPR3zQpPTG8hqgIV3VGvNh54XQ/uWOh2G+hzat9R4tEtgqsC5eMJenvpgjytToOuNpm+mXvD6ZNbdrmbreuuNAIFrAlYknA1nBI4JB97AzvDNtoHtbJQaIkBgQQFBYkHcGppeKnR02R3TV9fj1952TBDoGltu8+2ag20ECJQvIEiUX+NkZnjqG+Opb8xrQ5w637XHqz8CBAhMERAkpqh5zCYC3pg3YdcpAQIEBgXOD+61kwABAgQIECAwICBIDODYRYAAAQIECAwLCBLDPvYSIECAAAECAwKCxACOXQQIECBAgMCwgCAx7GMvAQIECBAgMCAgSAzg2EWAAAECBAgMCwgSwz72EiBAgAABAgMCgsQAjl0ECBAgQIDAsIAgMexjLwECBAgQIDAgIEgM4NhFgAABAgQIDAsIEsM+9hIgQIAAAQIDAoLEAI5dBAgQIECAwLCAIDHsYy8BAgQIECAwICBIDODYRYAAAQIECAwLCBLDPvYSIECAAAECAwKCxACOXQQIECBAgMCwgCAx7GMvAQIECBAgMCAgSAzg2EWAAAECBAgMCwgSwz72EiBAgAABAgMCgsQAjl0ECBAgQIDAsIAgMexjLwECBAgQIDAgIEgM4NhFgAABAgQIDAv8P8KNzx41wiSJAAAAAElFTkSuQmCC;" vertex="1" parent="1">
          <mxGeometry x="750" y="420" width="340.15" height="285.59" as="geometry" />
        </mxCell>
        <mxCell id="JWXI3P4WpeoxLLxnXd8x-9" value="" style="shape=image;verticalLabelPosition=bottom;labelBackgroundColor=default;verticalAlign=top;aspect=fixed;imageAspect=0;image=data:image/png,iVBORw0KGgoAAAANSUhEUgAAAeoAAAHMCAYAAAAamOsRAAAABHNCSVQICAgIfAhkiAAAIABJREFUeF7t3X2sbtldF/B9p7eUUmxaQnkN/EFiTCAGtRhniKEQJEDw7XZACC9TaGoMJEb+0fi3//iHiREINGCj5S0Ba51gEKmSEA2mQ7BAon+YiAaRROJIHYqFTmeG617n3GfmufvsvZ+9n73W3uvl84TLnbNf1l7r81vn+Z6193Nu7z187tmHXQOve08+GB1lP/7R7TYSIFC3QHhP8P1fd41TjW7vuXM/1UBya3fqG3IY4FPH5TYe/SFAgACBNgSaCeqpcg6D+Ty4h/um2rCdAAECBAikEmg+qIew5+FstT3U8TUBAgQI7C0gqGfEhytqwT2DZRcBAgQIJBEQ1CtYp4J7uH1Fkw4lQIAAAQKzAoJ6lmd+5ymgPdeed7KXQG4Ce39qN7fx609ZAoI6Qr2mnmtbaUfA1QQBAgQaFxDUkSeA0I4MqjkCBAg0LiCoE06AsdC2yk4IrmkCBAhUKCCodyqq59k7QbsMAQIEKhMQ1DsX1Cp7Z3CXI0CAQOECgvrAAg5X2W6LH1gMlyZAgECmAoI6g8II7AyKoAsECBDIVEBQZ1QYgZ1RMXSFAAECmQgI6kwKcd4NgZ1hUXSJAAECBwkI6oPgl1xWYC9RcgwBAgTqFhDUBdRXYBdQJF0kQIBAIoEnErWr2QQCIbDDn+H/ileCS2mSAAECBDIRENSZFGJNN05hLbDXqDmWAAECZQq49V1m3W5W1uF1CuvT14UOR7cJECBAYELAinoCppTNboeXUin9JECAwHUCgvo6t+zOcjs8u5LoEAECBKIIuPUdhTGPRtwOz6MOekGAAIGYAoI6pmYmbQnsTAqhGwQIEIgg4NZ3BMRcm/D8OtfK6BcBAgSWCwjq5VbFHun5dbGl03ECBAh0grqRSWB13UihDZMAgeoEBHV1JZ0f0Gl1PX+UvQQIECCQi4CgzqUSO/ZDWO+I7VIECBDYKCCoNwKWerqwLrVy+k2AQGsCgrq1ip+N14fMGi6+oRMgUIyAoC6mVGk66kNmaVy1SoAAgVgCgjqWZOHtuBVeeAF1nwCBagUEdbWlXT8wYb3ezBkECBBILSCoUwsX1r6wLqxgukuAQPUCgrr6Eq8foLBeb+YMAgTaELj35IMuvEfu+RLUe2oXdC1hXVCxdJUAgaoFBHXV5d02OGG9zc/ZBAgQiCEgqGMoVtyGsK64uIZGgEARAoK6iDId20lhfay/qxMg0LaAoG67/otHL6wXUzmQAAECUQUEdVTOuhsT1nXX1+gIEMhTQFDnWZdseyWssy2NjhEgUKmAoK60sIZFgAABAnUICOo66rjrKKyqd+V2MQIEGhcQ1I1PgGuHL6yvlXMeAQIE1gkI6nVejj4TENamAwECBNILCOr0xlVfQVhXXV6DI0AgAwFBnUERdIEAAQIECEwJCOopGdsXC1hVL6ZyIAECBFYLCOrVZE4YExDWYyq2ESBAYLuAoN5uqIVHAsLaVCBAgEB8AUEd31SLBAgQIEAgmoCgjkapoSBgVW0eECBAIK6AoI7rqTVhbQ5kLnDvyQc3P1B6EShFQFCXUin9JECAAIEmBQR1k2VPP2i3wNMbuwIBAm0ICOo26myUBAgQIFCogKAutHAldNuquoQq6SMBArkLCOrcK6R/BAgQINC0gKBuuvzpB29Vnd7YFQgQqFtAUNdd3yxGJ6yzKINOECBQqICgLrRwuk2AAAECbQgI6jbqfPgoraoPL4EOECBQqICgLrRwuk2AAAECbQgI6jbqnMUoraqzKINOECBQmICgLqxgukuAAAECbQkI6rbqffhoraoPL4EOECBQmICgLqxgukuAAAECbQkI6rbqncVoraqzKINOECBQiICgLqRQukmAAAECbQoI6jbrfvioraoPL4EOECBQiICgLqRQukmAAAECxwrce/JBFxYZe78E9d7irveqgFW1yUCAAIHLAoL6spEjCBAgQIDAYQKC+jB6FyZAgAABApcFBPVlI0ckFHD7OyGupgkQqEJAUFdRRoMgQIAAgVoFBHWtlTUuAgQIEKhCQFBXUUaDIECAAIFaBe7XOrCU43r7+x5cbP4j79n/d+0udirTA07PqY/4/cRMSXSLAAECrwoI6isnw1wQLwnyKy/rNAIECBBoTGDVre/wr7JMva7dN9We7QQIECBAgEDXLQ7qLf902twtzbmAV6B2BPyaVju1PnKkW97Hjuy3a7ctsDio58I2EE7tnwviS980c+e2XTajJ0CAAIFWBBYH9bUgUwEe2pvbNxXiYbsAv7YaziNAgACB0gSy/TDZVIhPbQ/wpwCfO6a0AukvAQIECLQtkHxFvSdvCOipkLYK37MS110r1E6drrNzFgEC9QosXlFP3YoONFP7prbvzTnXj7l9c/30K1hzOvYRIECAQCyBxUF9zQXnVrdT+665zqVzpq51bUjP/Q71pb7YT4AAAQIE1ggsvvU9FXbhYlP7rrmNOXXO1PY1gx0eO9Xv03Eprjnsg68JECBAgMCcwOKgnmtkat9UEE5tn2pnbnuKMD21GbOfc2Ow7zWBYJ6ipowJECBQqkDSoL4GZSocp7ZPXWPLm/3UtUKbW9qd6qvtBAgQIEBgSiC7oJ7q6NT2qVCdOn5L0IZrrb3eVD9sJ0CAAAECSwSKD+qpQa4N1C0BbqU9VQXbCRAgUIdAeJ9fmyuxRp70U9+xOhmznTHorQUYazNmn7VFgAABAu0KVLuiXlPSuaC10l4jGefYUI8t7nF6oRUCBAjkISCoZ+owtdJeGiKeac/g2kWAAAECiwQE9QzT2Ep7Krxnmnlsl+fZS6UcR4AAAQJBQFCvnAdj4X1qYslK2yp7JbjDCRAg0LiAoI40AbastE8BvyToI3U3+2Y8p86+RDpIgMBOAoI6EvTYSnvpbe7TuWNtROqeZggQIECgUAFBnbBwU7e5rZwTomuaAAEClQk093vUR9dvyy3yo/vu+gRKFvC991r13vs9Dy6W8rt/6NmLxzhgHwEr6n2cX72K29s7g7scAQIEChcQ1IUXUPcJECBAoG4BQV13fY2OAAECBAoXENSFF1D3CRAgQKBuAUFdd32NjgABAgQKFxDUhRdQ9wkQIECgbgFBXXd9ix6df52s6PLpPAECkQQEdSRIzRAgQIAAgRQC/sGTFKraJECAQMYC/jGTjIsz0jUr6hEUmwgQIECAQC4CgjqXSugHAQIECGQpcPQ/Pyuos5wWOkWAAAECBG4FBLWZQIAAAQIEMhYQ1BkXR9cIECBAgICgNgcIECBAgEDGAoI64+LoGgECBAgQENTmAAEC1Qsc/and6oENMKmAoE7Kq3ECBAgQILBNQFBv83M2AQIECBBIKiCok/JqnAABAgQIbBPYJajD8yEvAgQIECBAYL3ALkG9vlvOIECAAAECBILAbkFtVW3CESBAgACB9QK7BfX6rjmDAAECBAgQENTmAAECBAgQyFhgt6B++NyzndvfGc8EXSNAgACBLAV2C+osR69TBAgQIEAgc4Fdg9qqOvPZoHsECBAgkJ3ArkEdRi+ss5sDOkSAAAECGQvsHtTBQlhnPCN0jQABAgSyErg//IBXCNE9Xqew3ut6e4zJNQgQIECAQGyB+8OgHAb38ILD44f7h1/P/c/LCeuhlq8JECBAgMDjAveHIJeCeC7IL507vFb4WliPqdhGgAABAgRuBe4E9SWYuTCeC/FL7dpPgAABAgQI3BVYHdR3m3hty1iIh/A+D/CxY6yq51TtI0CAAIGWBaIG9RTkeTgPV92nfaewDm2MhflU27YTIECAAIGaBXYJ6nPAYQifgjtsP+2b+wBazcUwNgIECBAgMBTYPaiHHTgP5/N9wnoo5WsCBAgQaFHg8KA+oY+ttM9X2y0Wx5gJECBAgEDSf5lsy6p4eCtcqQgQIECAQIsC2ayop/CHK+2p42wnQIAAAQI1CiRdUdcIZkz7CWy5I7NfL12JAAECaQUEdVpfrRMgQIAAgU0CgnoTn5MJECBAgEBaAUGd1lfrBAgQIEBgk0CyoPZ8cVNdnEyAAAECBG4EkgU1XwIECBAgQGC7gKDebqgFAgQIECCQTEBQJ6PVMAECBAgQ2C4gqLcbaoEAAQIECCQTENTJaDVMgAABAgS2Cwjq7YZaIECAAAECyQSSBLVfzUpWr2YaNoeaKbWBEiBwQSBJUF+4pt0ECBAgQIDAQgFBvRDKYQQIECBA4AgBQX2EumsSIECAAIGFAtGD2rPFhfIOI0CAAAECCwSiB/WCazqEwKyAH/ZmeewkQKAxAUHdWMENlwABAgTKEhDUZdVLbwkQIECgMYGoQe2WZWOzx3AJECBAILlA1KBO3lsXIECAAAECjQkI6sYKbrgECBAgUJaAoC6rXnpLgAABAo0JCOrGCm64BAgQIFCWgKAuq156S4AAAQKNCQjqxgpuuAQIECBQloCgLqteekuAAAECjQlEC2q/Q93YzEk0XPMoEaxmCRAoViBaUBcroOMECBAgQCBjAUGdcXF0jQABAgQICGpzgAABAgQIZCwQJag9V8y4wrpGgAABAkULRAnqogV0PhsBP/BlUwodIUAgIwFBnVExdIUAAQIECAwFBPVQxNcECBAgQCAjAUGdUTF0hQABAgQIDAU2B7XnikNSXxMgQIAAgXgCm4M6Xle01LKAH/harr6xEyAwJyCo53TsI0CAAAECBwsI6oML4PIECBAgQGBOYFNQu105R2sfAQIECBDYLrApqLdfXgsECBAgQIDAnICgntOxbxcBd2Z2YXYRAgQKFRDUhRZOtwkQIECgDYGrg9oqqI0JYpQEahB4+NyzXXjP8iJQosDVQV3iYPWZAAECBAiUJiCoS6uY/hIgQIBAUwKCuqlyGywBAgQIlCYgqEurWGX99VmHygpqOAQIRBe4Kqi9uUavgwYJECBAgMCowFVBPdqSjQQIECBAgEB0AUEdnVSDBAgQIEAgnoCgjmepJQIECBAgEF1gdVB7Ph29Bs02aC41W3oDJ0BghcDqoF7RtkMJECBAgACBjQKrgtoKaKO20wkQIECAwEqBVUG9sm2HEyBAgAABAhsFBPVGQKcTIECAAIGUAouD2m3vlGVor23zqb2aGzEBAtcJLA7q65p3FgECBAgQILBFQFBv0XMuAQIECBBILCCoEwNrngABAgQIbBEQ1Fv0nEuAAAECBBILLApqH/xJXIXGmjefGiu44RIgsElgUVBvuoKTCRAgQIAAgasFBPXVdE4kQIAAAQLpBQR1emNXIECAAAECVwsI6qvpnEiAAAECBNILXAxqH/xJX4SWrmA+tVRtYyVAIIbAxaCOcRFtECBAgAABAtcJCOrr3JxFgAABAgR2ERDUuzC7SBBw29s8IECAwHqB2aD2xroe1BkECBAgQCCmwGxQx7yQttoW8ENf2/U3egIErhcQ1NfbOZMAAQIECCQXENTJiV2AAAECBAhcLyCor7dzJgECBAgQSC4wGdSeKSa3b+YC5lIzpTZQAgQSCEwGdYJraZIAAQIECBBYKSCoV4I5nAABAgQI7CkgqPfUdi0CBAgQILBSQFCvBHM4AQIECBDYU2A0qH34Z88S1H0tc6nu+hodAQLpBUaDOv1lXYEAAQIECBBYIiColyg5hgABAgQIHCQgqA+Cd1kCBAgQILBEQFAvUXIMAQIECBA4SOBOUPvwz0GVqPCy5lKFRTUkAgR2F7gT1Lv3wAUJECBAgACBSQFBPUljBwECBAgQOF5AUB9fAz0gQIAAAQKTAoJ6ksYOAgQIECBwvMBjQe3DP8cXpJYemEu1VNI4CBA4WsCK+ugKuD4BAgQIEJgRENQzOHYRIECAAIGjBQT10RVwfQIECBAgMCPwalB7pjijZNcqAXNpFZeDCRAgMCtgRT3LYycBAgQIEDhW4CaorYCOLYKrEyCQVsB7XFpfracVsKJO66t1AgQIECCwSUBQb+JzMgECBAgQSCsgqNP6Nte6W4zNldyACRBILPCEN9bEwponQIAAAQIbBKyoN+A5lQABAgQIpBYQ1KmFtU+AAAECBDYICOoNeE59XMBjFDOCAAEC8QUEdXxTLRIgQIAAgWgCTzx87tlojWmIAAECBAgQiCtgRR3XU2sECBAgQCCqgKCOyqkxAgQIECAQV0BQx/VstjUfJGu29AZOgEBiAUGdGFjzBAgQIEBgi4Cg3qLnXAIECBCoWiCHu4WCuuopZnAECBAgULqAoC69ghn0P4efODNg0AUCBAgkERDUSVg1SoAAAQIE4ggI6jiOWiFAIFMBd3wyLYxuLRYQ1IupHEiAAAECBPYXENT7m1d1RauVqsppMAQIZCggqDMsii4RIECAAIGTgKA2FwgQIECAQMYCgjrj4ugaAQIECBAQ1OYAAQIECBDIWEBQZ1yc3Lvmg2S5V0j/CBCoQUBQ11BFYyBAgACBagUEdbWlNTACBAgQqEFAUNdQRWMgQIAAgWoFBHW1pU07MM+n0/pqPY6AeRrHUSvHCgjqY/1dnQABAgQIzAoI6lkeOwkQIECgVYFc7sgI6lZnoHETIECAQBECgrqIMuXVyVx+ysxLRW8IECCQRkBQp3HNotUQqOGPFwECBAiUKyCoy63dTc9PQTwWyA+fe7YLf7wItCjgzk+LVa9zzIK68LqeglggF15I3SdAgMCEgKCegLF5XMAqZdzFVgIECKQSENSpZLVLgAABAgQiCAjqCIiaIEAgLwF3fvKqh95sExDU2/yyPnvug2ZZd1znCBAgcLBATj/sCeqDJ0PMyw8/+R37g2Y5TdyYbtoiQIBAzgKCOufqLOzbKaB98nshmMMIECBQkICgLqhYU10V0FMythMgQKB8AUFdfg2NgACBMwGPaEyH2gQEdW0VHYzHB8oqL7DhESBQvYCgrrzEsT9QVjmX4REgQCA7AUGdXUm2dWj4ye9trTmbQFkCbnuXVS+9XSYgqJc5ZX9U6k9+ewPMfgroIAEClQoI6koK65PflRTSMAgQOFwgt4WJoD58SugAAQIxBHJ7c40xJm0QCAKCuoF5EN7APLtuoNCGaJ6bA1UK3K9yVAb1mIDb4iZE7QKpP6NRu5/x5S1gRZ13fVb3zsp5NZkTChY4v1vkB9KCC5lR13N8hGJFndEE0RUCBJYL5PiGurz3jiSwXEBQL7cq4sgUqwpviEWUvvpODu8WpZjr1SMaYJECgrrIsm3vtGd62w21sI+AubqPs6vkKyCo861N9J6dv+GF1Yjne9GJNRhRQEBHxNRU0QKCuujyrev88FbhKaxPf59aGx637iqOJrBeYHhbO7RgHq53dEadAoK6zrrerJaXvNGdh/WJwkqm0kmR2bDOw3nJXM2s+7pDYDcBQb0b9X4XWhrSUz06vWmev5EK7ykt29cKmEtrxRzfuoCgrnAGrF2djK2qA8t5YI+F94lu7fUqJDekEYGx29nn82rkFJsIEBgRENQjKDVvmlrNTIX10GIslN3CHCq1+fUwmMfmSpsyRl2KwNa7kanGKahTyWba7tyb59KwHg7tvM3hm3U4du6aw7Z8nb/AWI3VOf+66WG5AoK63Nol6fm1YX3qzFgoT72xe3NPUsIojapZFEaNEIgiIKijMObXyNQt7rU9jXEraCy8T/2YCoS5c9aOwfF3BabcT0fyv2tmC4GjBAT1UfKJr7vljXbrqnrN0Kb6ORckU+esuW4LxzJsocrGGEsgxqIkVl+G7QjqoUgjX8dacafimgvjuQAa9meuneGxuX+9ZtxhLDWNPffa6B+BlAKCOqVuxm1fehM/rapzHMKlvp/3eW245TjeU5/WjDvncegbAQLrBAT1Oi9HFyYg3AormO4SIHBH4Ik7W2yoTuDaVaWQq24qGBABAgUKCOoCi7amyzl/QGLNOBxLgACBVAK5v08K6lSVz6TdS6via1fbmQxPNwgQIFC9gKCuvsTTA1z6U6Qwnza0hwABAqkFBHVq4Yzbv7TaDl1fckzGQ9Q1AgQIFC8gqIsv4bIBbFkVC+tlxo4iQKA8gaV3Fo8cmaA+Ut+1CRAgQIDABQFBfQGolt2XVsVbVty1GBkHAQIEchQQ1DlWZec+lXDrZ2cSlyNAgEA2AoI6m1Ic15FLq+3jeubKBAgQSCdQyiJFUKebA1omQIAAAQKbBQT1ZsKyGvAsuqx66S0BAgQEtTlwIxACXIibDAQIEMhPwP96Vn41SdqjqefRU9uTdkbjBAgQIHBRwIr6IpEDCBAgQKA2gVI+SBbcBXVts894CBAgQKAqAUFdVTmXD8bz6OVWjiRAgMCRAoL6SP2Drj13y8eHyg4qissSILCbwNx74G6dWHEhHyZbgVXLoXMfHJvbV8v4jYMAAQIlCVhRl1QtfSVAgACBTQKlrabDYAX1ppKXf7Jn1eXX0AgIEKhbQFDXXd/Z0V36yVKIz/LZSYAAgV0EBPUuzHleZO559KUQz3NEekWAAIH6BHyYrL6aRhnRXIhHuYBGCDQuMLxj5Xsu/YQodQFiRZ1+brgCAQIECBC4WkBQX01X14nDn+7PRze3ry4FoyFAgEB+AoI6v5rs3qO520Fz+3bvqAsSIEDgSoGS38s8o76y6DWdNvdsbG5fTQbGQiClwPCuVPi+8r2VUryutq2o66qn0RAgQIDAQKDk1XQYiqA2pQkQIECAQMYCgjrj4hzRteEtulMfwvapfUf00zUJECDQioBn1K1UeuM4PU/bCOj0ZgSGP9B6Hn1s6Uu/7R30rKiPnUPZXV0gZ1cSHSJAoHEBK+oLE+Dt73tw4Yiu+8h7nr14jAMIECBAYF+BGlbTQUxQL5g3c0G8JMgXXCK7Q6Ym+Om2npV3diXToQMExm5zj3VjyfvE3PvMWJu2tSMgqNupdZSRCugojBqpWMD3SMXFPWhonlEfBJ/7Zb3Z5F4h/SNAYE5g6q7g3Dm57rOizrUy+kWAQFYCS29zZ9VpnalCQFBXUca0g5j6yXRqe9reaJ1APgLuPOVTi/Oe1Pbe5NZ3nvMsm15NTfip7dl0XEcIECBQiYCgrqSQqYYxtWKY2p6qH9olQIDAEoEaFxFufS+o/JJfrVjQTLWH1PiNUW2xDGyRwNjzaD+cLqJzUAIBQX0B1e82zgMJ6XkfewkQ2E+g1vcjQb3fHCr+SmPfBFYZxZe16QGMrZxTgPiBP4VqO216Rt1OrY2UAAECBAoUsKIusGhHddnq+Sh5191bwFzfW3z79cbu+G1vNY8WBHUedSiuFzV/UxRXDB1eJLDXbe5FnXEQgRUC9/pjH/rpcYWYQwkQKFJAUBdZtkWdrn3h4Bn1omngoHOB4RseHQIECBBIJ+DWdzrbalt2B6ba0lYzsOEPk+ZsNaW9M5DaV9NhwPfDBG5hoHeqawMBAk0JCOumyl3VYK2oqyqnwRBoT8Dqub2an0bcyiLz5hn1aVXdbrmNnAABAgQI5ClgRZ1nXfSKAIENAm5zb8Ar5NRWVtOhHK8GtWfVhcxO3STQqIBb3I0W3rBfC2oWBAgQKFHA6rnEqm3rc0ur6SDl1ve2+eLsnQX+zwsf6/7uS+/qfuUv3V74d/u/frv/zQWvugSsnuuqZ8zRtBbSwe6xf/DEh8piTidtpRB45uve1b38h133Ff+6697xof6DkP1Fwjfu5/d/vAgQqFugxZAOFbWirnteVze6z/6prnvlj7rupRf7ofX/AO7X/bWu+7l/1nV/+V923ev6sH7F6rq4mi9dPbvFXVxpdTiSwJ1/QtSqOpKsZpII/P7Hu+73v6UP6pe67r/9Ttf9Vh/S3/CB2+D+zv6/3/0/HnTf9dsPbkI7/PEiQKAOgVZX06F6VtR1zOEmRvHVffC+5Ye7rl9Qd6+83HW/8Dduh/2uPrQf9vfAf69fZb/5U7ru+W/uum/7if65Tv9j6Lt/80H3o32wh9c7v+qp7gN//+80YZXjIJeunEPfrZ5zrKA+HSVwZ0V9+iYZflMd1UHXJXAS+NSbydl1b/nJ/q8+rZ/+U7d7QmiHPx959+3ff+yfdt3vfHvX/a9v7brffaXr3vXTfWD/86579hc/3N0fWWX/+ZFt1LcJhPeP8z/bWnN26wItr6ZD7a2oW/8OKGj8IYA//l19h/ug/mQfwB/89dvO/8QzXfdF/X9+0ff1Ad5vf/mT/f4f6LpP+Ztd9+K39aHd7ws/kX7jB7vuPz59d8D9KTeh8mX93+Eb4sOec99FSrjF6jkhbgVNtx7SoYSTQe0fQKlghlc0hD/4xItdCNQwYZ94Xdf9VB/A4fXtP3a7uv7wd3bd577x9hb4p/a3vz+/X34/1+/v74p3T/3jrvvf/df3+pD+Cz9ze975/3/D9/bH/6Oue0O/8ZeE9F2gmS3DO29CdwbLLgJXCkwG9ZXtOY1AEoGnv/Jbujf1n/h+27/on1GHh9SPXuE59M0z6/5PCPDw61qn1+/1//EF/Z///te77lf7v7+w//NZ/YHP/NaD7p984Qf70L998vMb33ev+9z+zFNIf2m4bdsf++tC+zXM/r+2hrIQf4zTFwsErKZvkWaD2qp6wUxySHKBFz/5Uvf6/tev/m9/S7t7Z9d9Zv/f3/Hnuu7Hf7n/lawwg/vw/TPv74OkT+k/7H/H+uU+ud/8pq77aL8rBHUI8W/tj/ul/jn26/sw/4O+jWe6p7vX9f9Oyt964R903/hvHnb3Hn1a4+X+U2lf3v+O9qd/WvJhZX0BoZx1eZronJB+rcyzQd3EbDDI7AW+9Cv6X5buX+/4hT58f77/kFgf2L/Sh/Q73t91/6lfNr+lv+X9ea/vuk/0ifz/vud2OOHXrL/svV332f0t7//SP9f+yT6kP+vRSN/6s/0nxP9iv/ruf3vrxz/0t7sXPtF1v9G3231H/39PvbPr75x3721kNb01kB+R+otAVAEh/TjnvX7VfH63cBQb2iiLjQcI/PH+tnS/aH71Fnf4oNjbf6RfRfcPo1/p/3zOZ/Qr7n7bx/oV8sv9J7/DLexHi+U8hpZHAAAIZklEQVSb3obJ3md29z/7YH57H9Bv7UM+3D5/4Wtuj73/r/p2vqHr+s+tVfcrQmOhPLYtOI1tH9t2g+pFILKAzHkc1Io68gTTXFqB/3q20n3+oy90b/uMt9xc8EPP/Vr39d/797r/3P/3n/z+29B9Yx/gX/zW22fX4db2j/zV1/r24ps+0H3zS9/Uffxrbz9w9pv97e4v6Vfkb+xDOoT7m//E7bFj4TS2Le2o17eeoo+eMa+vgzPWCwjpu2aLgtqz6rtwthwvcArp0JOvffJPd390FuJPPPpAWH+H/NXXMGie/7mu+7P97fR7fTL/7Ff3nw7vv/5Yf3R4pv2Gj75t1QDHgvGobas6PnHw0GriMJsJENhBYFFQh34I6x2q4RLRBM5D+30/82+7H/xAn8KD179/5oPdU0893f1yH/D/sP9dru/+6IOuvxPevT8c9/zzw8Or/FogV1nWYgdlNT1eusVBHU4X1uOItuYt8J6/8jVd+HP+elu/4g6/N/3Yq/9E+Gf+u36ev6HO/9lMoTwsuK9zEhDS09VYFdShGWE9jWlPOQLhEfR/6P98ef/nyT60n+tX1R/un1ffvMK/lPLoNRZuY9teOyOP/yqhj3lI6QWB/AUWfep7OAw/+QxFfE2AAAEC1wrIlHm5899cmT/ybO9pVb34BAcSIECAAIERASE9gjLYdFVQhzaE9WVcRxAgQIDAtICQnrY533N1UIdGhPUyZEcRIECAwOMCQnr5jNgU1Msv40gCBAgQIHArIKTXzYTNQW1VvQ7c0QQIEGhZQEivr/7moA6XFNbr4Z1BgACB1gSE9HUVjxLU4dLC+roCOIsAAQItCAjp66scLaiv74IzCRAgQKBmASG9rbpRg9qqelsxnE2AAIHaBIT09opGDerQHWG9vShaIECAQA0CQjpOFaMHdeiWsI5THK0QIECgVAEhHa9ySYI6dE9YxyuSlggQIFCSgJCOW61kQR23m1ojQIAAgRIEhHT8KiUNaqvq+AXTIgECBHIVENJpKpM0qEOXhXWawmmVAAECOQkI6XTVSB7UoevCOl0BtUyAAIGjBYR02grsEtRhCMI6bSG1ToAAgSMEhHR69d2COgzlFNahsF4ECBAgULaAkN6nfrsGdRhSCGur632K6yoECBBIJSCkU8nebXf3oD51QVjfLYYtBAgQKEFASO9bpcOCOgxTWO9bbFcjQIDAVgEhvVVw/fmHBnXorrBeXzRnECBAYG+BENBCem/12+vdP+ayj1/1FNbhby8CBAgQyEfg9OFf78/H1eTwFfVp6FbWx00CVyZAgMCYwGkFLaTHdPbblk1QhyEL6/0K70oECBCYE3Cbe05n331Z3Po+H/J5WPspbt/J4GoECBBwqzu/OZBdUAeiU0CbMPlNGD0iQKBeAavoPGub1a3vIVEIbLfDhyq+JkCAQHwBIR3fNFaLWQf1aZDCOla5tUOAAIHHBUJAC+m8Z0WWt77HyDy7HlOxjQABAtcLCOjr7fY8s4gV9QnErfA9p4ZrESBQs4CQLqe6RQX1eWCfPmhWDrWeEiBA4HgBt7qPr8HaHhRz63s4MLfChyK+JkCAwLTAaXHj116njXLdU2xQB1C/xpXrtNIvAgRyERDQuVTi+n4UHdSnYZ8Htp8Wr58MziRAoB4BAV1PLasI6vPANjnrmZxGQoDAegHvgevNcj+jqqAO2G6H5z7l9I8AgRQCAjqFah5tVhfUJ1aBnccE0wsCBNILhJD22C+981FXqDaoBfZRU8p1CRDYS8Aqei/pY69TfVAL7GMnmKsTIBBfQEDHN825xWaCWmDnPA31jQCBSwKncA7Huc19Sauu/c0F9al8nmHXNZGNhkCtAlbPtVZ2+biaDWqBvXySOJIAgX0FrJ739c79as0HtcDOfYrqH4F2BKye26n1mpEK6oHW8JZ42O150Jop5VgCBNYIWD2v0WrzWEE9UffzcPZT7gSSzQQIXC3gfeVquuZOFNQLSm6VvQDJIQQIXBSwer5I5IARAUE9gjK1ySp7SsZ2AgTmBKye53TsuyQgqC8JTey3yp6AsZkAgRsBq2cTIZaAoN4oaZW9EdDpBCoROA/mMCQfQq2ksBkMQ1BHLIJVdkRMTREoRMBt7UIKVXA3BXWC4lllJ0DVJIFMBKycMylEQ90Q1ImLPbbKDpd0WywxvOYJRBIQzJEgNXO1gKC+mm7dicNg9s2/zs/RBPYWcEt7b3HXmxIQ1FMyibfPBfdwX+KuaJ4AgV7AD8+mQa4CgjqTyow91z51TXBnUiTdqEZgGMphYL7PqilvdQMR1BmWdPiG4U0lwyLpUjECvn+KKZWOTggI6gmYnDYPgzv0bfjmM3ZMTmPQFwJ7Cfje2EvadfYSENR7SUe+zjCYffAlMrDmihPwPVBcyXR4oYCgXgiV+2Gn4LaayL1S+hdLwFyPJamd3AUEde4VWtm/qZX2eTPDY1ZewuEEdhUYBvLp4ubxrmVwsQMFBPWB+HtceuzNbOyNb+y4PfrnGu0KjM3DMQ1zc0zFtpYEBHVL1X401rE3vqk3zbFjGyQz5I0CY/PL3NqI6vRmBAR1M6WeH+jUm+bYG+xYS1Pnjx1rW70CU/PF/Ki35kaWXkBQpzcu+gpL32C9QRdd5oudn6rv8MSl82V4nq8JEJgWENTTNvasEJh6g/YGvwJx50OX1iZ0a6q+O3fZ5Qg0KSComyz7foNe+gYvNOLUhGMcR60QyElAUOdUjYb7sjTQA9GaMFpDuqYPa9odO7aGMYyNyzYCBOILCOr4plpMLJAqUFOF5xhHqjGMXcs2AgTKFhDUZddP7yMKCM+ImJoiQCCawBPRWtIQAQIECBAgEF1AUEcn1SABAgQIEIgn8P8BPr8WKBoqWEAAAAAASUVORK5CYII=;" vertex="1" parent="1">
          <mxGeometry x="-780" y="460.69" width="310.65" height="291.64" as="geometry" />
        </mxCell>
        <mxCell id="JWXI3P4WpeoxLLxnXd8x-10" value="" style="shape=image;verticalLabelPosition=bottom;labelBackgroundColor=default;verticalAlign=top;aspect=fixed;imageAspect=0;image=data:image/png,iVBORw0KGgoAAAANSUhEUgAAAeYAAAHtCAYAAADMVN0MAAAABHNCSVQICAgIfAhkiAAAIABJREFUeF7t3X+oPWldB/D57q6rboaL1WYR/RNIIVa4hqsZUhShBPa1sqRMWjYj6w8pCvynIITwz6Bcwq1ky7Q/ZCX6CQUhGGuwS5FF/RMhJmoatrQuq6vfnrl3xz13vnPmzMyZeeb58bpwXe85M888z+vz3PP+PjNnzr124+GHbjSZfV2753oT+p1Zr3WXAAECBAicFrjl9CbpbdGGchvOvggQIECAQGkCWQZzWwThXNpUNB4CBAgQaAWyDea288LZJCZAgACB0gSyDmbhXNp0NB4CBAgQyD6YlZAAAQIECJQkUEQwO6Vd0pQ0FgIECNQtUEQwtyUUznVPZKMnQIBAKQLFBLNwLmVKGgcBAgTqFigqmOsupdETIECAQAkCxQWzU9olTEtjIECAQL0CxQVzW0rhXO+ENnICBAjkLlBkMAvn3Kel/hMgQKBegWKDWTjXO6mNnAABAjkLFB3MwjnnqanvBAgQqFOg+GAWznVObKMmQIBArgJVBLNwznV66jcBAgTqE6gmmIVzfZPbiAkQIJCjQFXBLJxznKL6TIAAgboEqgtm4VzXBDdaAgQI5CZQZTAL59ymqf4SIECgHoFqg1k41zPJjZQAAQI5CVQdzMI5p6mqrwQIEKhDoPpgFs51THSjJECAQC4CgjmXSuknAQIECFQhIJifLrO/SFXFfDdIAgQIJC8gmA9KJJyTn686SIAAgeIFBHOvxMK5+DlvgAQIEEhaQDAPlEc4D6B4iAABAgSiCAjmI8zC+QiMhwkQIEBgUwHBPMLbhfO1e66PbOUpAgQIECCwnoBgPmHZhrPV8wkkTxMgQIDAagKCeSKlcJ4IZTMCBAgQOEtAMM/gE84zsGxKgAABAosEBPNMNuE8E8zmBAgQIDBLQDDP4rrcWDgvQLMLAQIECEwSuG3SVja6SaAL5/a/vggQiCcQ+y4Jv+PxautIlwKC+YyZIJzPwLMrgZ7A1MCNHZRT+9UNJ3b/TKTyBK6FSXSjvGHFHVH7i+uXMa65o+UjMDXYSvkdOjbeUsaXz8zLt6eCeaXaCeeVIDWTtcBQKAmky5L2bbhkPdU37bxgXpFXOK+IqankBPrBMtRBYTOkMvzYoSe3YaNaHxXMK1deOK8MqrldBIZCWHhsVwohvZ1tji0L5g2qJpw3QNXkZgJCeDPaRQ336+EfRIsYs95JMG9UPuG8EaxmzxLov+i3jXnhP4t0852tpjcnTu4AgnnDknS/UF74NkTW9KhAP4jNxVGu5J8U0smXaJUOCuZVGMcbsXoe9/HsOgL9EG5bFcTr2KbYipBOsSrr9Ekwr+N4shWr55NENpgp0A9iITwTsKDNvb4UVMwwFMEcuZ5Wz5HBCzlcP4TbYQniQoq74jAE9IqYOzYlmHfAF847oGd2yH4QC+HMCrhzdw/nj7mzczEWHF4wL0BbYxf/sl1DsYw2+iHcjsqLaRm1TWEUXmtSqMK8PgjmeV6rb231vDpp8g32g1gIJ1+yIjoooPMpo2BOoFbCOYEibNSFfgi3hxHEG2FrdpKAgJ7EtOtGgnlX/mcO7pclkULM7MZQ8B42IYRngto8moDXnGjUsw8kmGeTbbuDX5Ztfc9pfSiEBe85ovZNQcBrTgpVuNoHwZxeTS561P6yeNHftzj9IFaPfevh6NsKeM3Z1ndO64J5jlbkbQVDXHDecb0dLT0Bq+c0aiKY06jDpF74pZnENHkjQTyZyoaVCXit2bfggnlf/0VH90szja0fvP29nJrui/iZwFUBrzX7zAjBvI/7KkftB0/tQcNjlWmlEQI3CbS/W7W/vtyEsuEDgnlD3NhN94OpPX5Jv0xD4zs0LmmsseeO4xE4JSCcTwmt97xgXs8yyZaGwizVABvq6yFqqv1OsvA6RWADge531O/iBrgHTQrmbX2TbP1UAB52eskv4Jz2zz1WksA6RaBwAavnbQssmLf1zb71JSG7JMyzhzIAApUJCOftCi6Yt7PVMgECBIoWEM7blPeWbZrVKgECBAiULtCeHVtyVq10l3PHJ5jPFbQ/AQIEKhbowllArzcJBPN6lloiQIBAlQJtOFs9r1d6wbyepZYIECBQtYBwXqf8gnkdR60QIECAQBAQzudPA8F8vmF2LbgWlF3JdJhAVgLC+bxyCebz/LLbu397g5DOroQ6TCALAeG8vEyCebldlnu2vyzdVz+ksxyQThMgkKyAcF5WGsG8zK2IvfohXcSgDIIAgaQEhPP8cgjm+WbF7WHlXFxJDYhAUgLCeV45BPM8ryy3PnUduVs5H253ap8sIXSaAIHdBITzdHrBPN2qiC2PBe7hqrm/gj62TxEgBkGAQDQB4TyN2h+xmOZUxFb9wJ0yqP4+/Z+ntGEbAgQIHAp4HRmfD1bM4z5FPbvkzV79fYZOexeFZDAECGwuYOU8TiyYx308eyBwGMr9wAZFgACBOQLC+biWYD5uU/Qz/ZXvnOvI/VDu/1w0nMERILCagHAephTMwy7VPToUrlPCuh/w/Z+rgzRgAgRmCQjnm7kE880mVT3SD9LDN2UMhfUxnP62hz8f28fjBAgQaAWE89V5IJj9XlwIdEHaD+r2ucOw7lbRY6vpwzbGtkNPgACBTkA4PzMXBLPfi0GBwxXvYdB2vzxDAd5vqN3m8JdNSPeF/EyAwKGAcL7UcB+z34vFAt1KugvcfoAvbtiOBAhULXB4lq5GCMFcY9U3GnP/lPfhqrs9ZD/AN+qGZgkQKECg5nC+rYD6GUIiAqdWzP2gTqTbukGAAIGkBFxjTqocZXRGAJdRR6MgsKdAzdebBfOeM6+CY7eno4be9HXs8QpIDJEAgYkCtYaza8wTJ4jNCBAgQGAfgdquN1sx7zPPHJUAAQIECAwKCOZBFg+uKdCdyh46pb3mcbRFgECZArWd0hbMZc7jpEbVvRls6E1hrjUnVSqdIUAgAQHXmBMogi4QIECAwGmBWq41WzGfngu2IECAAIEEBGo5pS2YE5hstXTBaetaKm2cBAicIyCYz9Gz7yyB9l+7/evM3hg2i9DGBKoXqGHV7Bpz9dMcAAECBPITKPl6sxVzfvMx2x47lZ1t6XScQHICJa+c/RGL5KZbuR3qn8Yud6RGRoAAgeUCVszL7ey5koAPHlkJUjMEKhModdUsmCubyHsO99ip7FJ/ufa0dmwCBPIV8OavfGun5wQIECAQBEp7I5gVs2lNgAABAlkLlHbWTTBnPR3L6LxrzGXU0SgIEFhHQDCv46iVCQLHrjFP2NUmBAgQGBUoadXsdqnRUntyTYFjt0sde3zNY2uLAAECuQhYMedSKf0kQIAAgVGBUlbNgnm0zJ5cS+DYaWzXl9cS1g4BAqUICOZSKpnBOJyyzqBIukggc4ESVs2COfNJmEv3j/2yCOtcKqifBAjEEqjyA0buf+v1k74//66HTm5jAwIECBBIUyDnDx2xYk5zThXTq2PXkI89XszADYQAAQILBQTzQji7TRMYO4UtnKcZ2ooAgfkCx1575rcUfw/BHN+8uiP2ryN3gdx/vDoYAyZAgMCAgA8YGUDx0PkCY9d3un/JCubznbWQr8DdD5x+r8sj93mvyzkVzvW1xor5nKrb96jAqdNIQvkonScIEKhcQDBXPgHWHv7hdWPhu7au9ggQqEFAMNdQ5YhjHAtjb/aKWAiHIkDgQuDU2bsUmQRzilXJrE/9wO3/3A0nx1+QzEqhuwQIFCBQ5QeMFFC3RUMYe0PWogbtRIDAYgFv/lpMt2jHnF7/rJgXlTi/nbaYlIcr42Or5FZq7Ln8JPWYAAEC2woI5m19k2l97Nrv1E6OBewa7U/th+0IECBQsoBgLrm6M8fWBe/UlfBYGB+2MbbdzC7anAABAosEcnqPiw8YWVTi9Hfa4tT1nICds236mnpIYH0BHx6yvmkpLXrzVymVPBjHFqE8lymFPszts+0JEChfIIfXJqeyC5yHe6xW+9ef9+hDgaU0JAIEKhQQzBUWfY0h94N4jTa1QYAAAQJNI5jNgskCY2FshTyZ0YYECOwokMObwATzjhNk70O3QduFbT90h34+DF9BvHf1HJ8AgVIFvPmr1MrOGFf/zRD9n2c0ZVMCBAhkIZDy65wVcxZTaNtO9le//Z+3PbrWCRAgQOBQQDCbDwQIECBQnUDK15oFc3XT0YAJECBAIGUBwZxydfSNAAECBDYTSHXVLJg3K7mGCRAgQIDAfAHBPN/MHgQIECBAYDMBwbwZrYYJECBAgMB8AcE838weBAgQIFCIQIrXmQVzIZPLMAgQIECgDAHBXEYdjYIAAQIEChEQzIUU0jAIECBAoAwBwVxGHY2CAAECBBYKpHadWTAvLKTdCBAgQIDAFgKCeQtVbRIgQIBAVgIprZoFc1ZTR2cJECBAoHQBwVx6hY2PAAECBLISEMxZlUtnCRAgQKB0AcFceoWNjwABAgQmCaRynVkwTyqXjQgQIECAQBwBwRzH2VEIECBAgMAkAcE8iclGBAgQIEAgjoBgjuPsKAQIECCQgUAK15kFcwYTRRcJECBAoB4BwVxPrY2UAAECBDIQEMwZFEkXCRAgQKAeAcFcT62NlAABAgQyELjl2j3XM+imLhIgQIAAgTgCe78B7Ja9OxCH2VEIECBAgEAeAhensoVzHsXSSwIECBAoX+Ar15i7cHZqu/yiGyEBAgQIpCtw5c1fbThbPadbLD0jQIAAgfIFroUgvjE0zG7l3Aa1LwIECNQi0D9r6DWwlsrfPM52LuxR/6O3S1k931wkjxAgQIAAga0FjgZzd2CntrcugfYJECBAgMAzArdNwTgM5z2W9VP6aBsCBAicErj7gauf2/DIfS7VnTLzfHyBScHcdqsL5L3OucencUQCBGoUsPioserDY+4WpbHnxMlT2f3uOrXdF/EzAQIECBBYT2B2MLeHFs7rFUBLBAgQIEDgUGDyqew+m+vOfRE/EyCQuoBryqlXSP9agcXB3O7surNJRIBAaQLuYy6tovmNZ9Gp7P4wu9Vzf0L3t/MzAQIECBAgMC5w1or5sOnD1XP7eOx3sY0P07MECBAgQCAPgdWCuRuugM6j8HpJoFSBqbd0uqe51BmQ/7hWD2YBnf+kMAICuQtMDeehcTrbN6TisZgCq1xjHutwO8kP38E9tq3nCBAgcK5A/6zdue3Zv26BPfJr82DuStoNzhvE6p7kRk8ghoBVbwxlx9hKYLNT2UMdPvyXrF+cISGPESCwpsDhQqD/muOe5jWltbWmQLQV82GnrZ7XLKG2CBAYEuiCuP1v95oztJ3HCKQmEHXFfDj4w9Vz+3j/X7OpQekPAQJ5ChyumsdW0Iej619y8/qUZ+1z7fVuwdyBCehcp45+E9hPoB+cp3oiWE8JeX5MoDvjEmse7R7MHYaAHpsWniNQr8BQCM95gRzav6/Zv6e5/7yfCcQUSCaYu0EfBvScX76YaI5FgMC6AmPh6XVgXWutpS+QXDB3ZN2pg/Znv5jpTyQ9JHBKIKfw9Zpzqpqe31Ig2WBuB+309pal1zaB7QWmvtlq+544AoF8BK6F8LuRS3e7X3L/ms2lYvpZusDYKrgdeyq/q20/U+lL6XOi1PHFnENJr5j7BbaC7ov4mUBcgX4QC7u4/o5Wh0BWwdyVpB/Q/cfrKJ1REtheoNYgrnXc288oR5gikGUwHwti17OmlNw2BI4LlBpI7T/mp5yK7G6beul9l0aPPnDcyjMEthLIOpj7KIen1boXGKfa+kp+JnAp0A/h9lG/L2YHgf0FigrmQ87+6W4vOPtPNj3YV6AfxH4n9q2HoxM4JlBsMHcDFtDHSu/xkgX6IdyOVRDPrziz+Wb2OF+g+GDuiPoB3X/8fEotENhHQAiv5+5PQa5nqaXlAtUEc0fU/xewN4wtnzz23EegH8T9Ob1PrxyVQNkC7e/ZlDcQrqFQXTD30Q5f1LxhrK/j570F+iHc9kcQ710VxyewrUD1wXzI2z/d7QVw28mn9asCQnjbGTFnxdOvhdeCbWuj9asCgnlgRvQDutvEL+cAlocWCfRf+NtGzK9FlJvt1N3L3B6gvb/Z9efNqDXcExDMI1Oi/0LpxXQEy1NHBcybozSeIEBgQEAwD6Ace6gf1O12hy+6Q88fa8vjZQoI4TLralQEYgoI5jO1D8PYi/KZmInuPlTXY131j7NjMnk93tax+3jOvHqutyUICOYVqzj0ojz0oj603Yrd0NQZAup1Bl5hu7qmXFhBMxqOYN64WEMh7PT3xugTmxfCE6FsRoBAVAHBHJX78mBOf2+HPhS2x4429I+mY9t6vAyBtubtHFH7MupZ6igE886VHXqBmBMuXfeH2tl5aJse/phRbQ6bIlfeeH+OmVuVT4iIwxfMEbGnHmrJC0D/ReTwWEvam9rXNbcbG0P/OLmMqd9vP+cn0N3P3L0ZzLXn/GqYW48Fc24VO9LfsaCaE3hHmo/y8NgYonTAQQgQIJCAgGBOoAhbd0HgbS2sfQIECKwncMt6TWmJAAEC5Qi0/6D1j9py6rnGSNr5EOMMpBXzGtXSBgECxQq4plxsaZMdmBVzsqXRMQIECBCoUUAw11h1YyZAgACBZAWcyk62NDpGgMCeAv1ria4371mNuo4tmOuqt9ESILBQoP9HLVx7Xghpt5MCTmWfJLIBAQIECBCIJyCY41k7EgECBAgQOCngVPZJIhsQIFCjQP+acv9Udo0mxhxHQDDHcXYUAgQyF3BNOfMCZtR9p7IzKpauEiBAgED5AoK5/BobIQECBAhkJOBUdkbF0lUCBM4X6D7vuH8Neahl9zIPqXhsawHBvLWw9gkQKEqg/yYw156LKm8Sg3EqO4ky6AQBAgQIELgUEMxmAgECBAgQSEjAqeyEiqErBAikJTDlOnRaPdabEgQEcwlVNAYCBKIJuKYcjbraAzmVXW3pDZwAAQIEUhQQzClWRZ8IECBAoFoBp7KrLb2BEyBwSsB9zKeEPL+FgGDeQlWbBAgUL+B+5uJLvNsAncrejd6BCRAgQIDAzQKC+WYTjxAgQIAAgd0EnMrejd6BCRBIXcB9zKlXqMz+CeYy62pUBAhsLOB+5o2BK27eqeyKi2/oBAgQIJCegGBOryZ6RIAAAQIVCziVXXHxDZ0AgXGBU/cxu2Vq3M+zywSsmJe52YsAAQIECGwiIJg3YdUoAQIECBBYJiCYl7nZiwABAgQIbCLgGvMmrBolQKAEgVP3MbtlqoQqpzcGK+b0aqJHBAgQIFCxgGCuuPiGToAAAQLpCQjm9GqiRwQIECBQsYBrzBUX39AJEDgtcOpe5tMt2ILAPAHBPM/L1gQIZC7QBu2pN3XNGaIPGZmjZdspAk5lT1GyDQECBAgQiCQgmCNBOwwBAgQIEJgi4FT2FCXbECBQrcCap72rRTTwWQKCeRaXjQkQIHBVwIeMmBFrCziVvbao9ggQIECAwBkCgvkMPLsSIECAAIG1BQTz2qLaI0CAAAECZwi4xnwGnl0JEChfYMoHjLiXufx5EHOEVswxtR2LAAECBAicEBDMJ4A8TYAAAQIEYgoI5pjajkWAAAECBE4IuMZ8AsjTBAjULTDlA0bcy1z3HFl79FbMa4tqjwABAgQInCEgmM/AsysBAgQIEFhbwKnstUW1R4BAUQJTbpcqasAGs7uAYN69BDpAgEAJAu5lLqGK42NY+295HzuaU9nHZDxOgAABAgR2EBDMO6A7JAECBAgQOCbgVPYxGY8TIEAgCEy5XQoUgTUFBPOamtoiQKBaAfcyV1v61QfuVPbqpBokQIAAAQLLBQTzcjt7EiBAgACB1QUE8+qkGiRAgAABAssFXGNebmdPAgQqEZj6ISPuZa5kQmw8TCvmjYE1T4AAAQIE5ggI5jlatiVAgAABAhsLCOaNgTVPgAABAgTmCLjGPEfLtgQIVCkw9UNG3Mtc5fRYfdBWzKuTapAAAQIECCwXEMzL7exJgAABAgRWF3Aqe3VSDRIgkKrA0j/b53apVCtaZr+smMusq1ERIECAQKYCgjnTwuk2AQIECJQpIJjLrKtRESBAgECmAq4xZ1o43SZAIJ6A26XiWTtS01gxmwUECBAgQCAhAcGcUDF0hQABAgQICGZzgAABAgQIJCQgmBMqhq4QIECAAAFv/jIHCBAgMEHAh4xMQLLJKgJWzKswaoQAAQIEShZY+qlxS0wE8xI1+xAgQIAAgY0EBPNGsJolQIAAAQJLBFxjXqJmHwIEqhPwISPVlXy3AVsx70bvwAQIECBA4GYBwXyziUcIECBAgMBuAk5l70bvwAQI5CTgdqmcqpV3X62Y866f3hMgQIBAYQKCubCCGg4BAgQI5C0gmPOun94TIECAQGECrjEXVlDDIUBgGwG3S23jqtWbBayYbzbxCAECBQrE/EjFAvkMKaKAYI6I7VAECBAgQOCUgGA+JeR5AgQIECAQUcA15ojYDkWAQN4CU+9lznuUer+3gGDeuwKOT4BAUQJ3P3D9yngeue+hosZnMNsLOJW9vbEjECBAgACByQKCeTKVDQkQIECAwPYCTmVvb+wIBAgUIjD1XuZChmsYOwkI5p3gHZYAgTIFXFMus64xR+VUdkxtxyJAgAABAicEBPMJIE8TIECAAIGYAk5lx9R2LAIEshaYch+z26WyLnESnbdiTqIMOkGAAAECBC4FBLOZQIAAAQIEEhIQzAkVQ1cIECBAID2B2H+ZzDXm9OaAHhEgkKjAlPuY3S6VaPEy6pYVc0bF0lUCBAgQKF9AMJdfYyMkQIAAgYwEBHNGxdJVAgQIEChfwDXm8mtshAQIrCRw6j5m9zCvBF15M1bMlU8AwydAgACBtAQEc1r10BsCBAgQqFxAMFc+AQyfAAECBNIScI05rXroDQECCQucuo/ZPcwJFy+jrlkxZ1QsXSVAgACB8gUEc/k1NkICBAgQyEhAMGdULF0lQGCZQOzPOl7WS3sRuBRwjdlMIECAwAyBsXuZ3cc8A9KmRwWsmI/SeIIAAQIECMQXEMzxzR2RAAECBAgcFRDMR2k8QYAAAQIE4gu4xhzf3BEJEMhYYOxeZvcxZ1zYhLpuxZxQMXSFAAECBAgIZnOAAAECBAgkJCCYEyqGrhAgQIAAAdeYzQECBAjMEDh2H/NHHr1+pZWXv/ShGa3alMAzAlbMZgMBAgQIEEhIQDAnVAxdIUCAAAECgtkcIECAAAECCQm4xpxQMXSFAIH0BY7dx+yacvq1y6WHVsy5VEo/CRAgQKAKAcFcRZkNkgABAgRyERDMuVRKPwkQIECgCgHXmKsos0ESILCmQP9e5offdbV115vX1K6vLSvm+mpuxAQIECCQsIBgTrg4ukaAAAEC9QkI5vpqbsQECBAgkLCAa8wJF0fXCBBIU+DYvcxp9lavchOwYs6tYvpLgAABAkULCOaiy2twBAgQIJCbgGDOrWL6S4AAAQLRBNpb42JfunCNOVp5HYgAgVIE3MdcSiXTHIcVc5p10SsCBAgQqFRAMFdaeMMmQIAAgTQFBHOaddErAgQIEKhUwDXmSgtv2AQILBeI/Wag5T21Z44CVsw5Vk2fCRAgQKBYAcFcbGkNjAABAgRyFBDMOVZNnwkQIECgWAHXmIstrYERILClQHcvs7/FvKVynW1bMddZd6MmQIAAgUQFBHOihdEtAgQIENhfoH0Hfv+T3rbulWDeWlj7BAgQIEBghoBrzDOwbEqAAIFOwL3M5sJWAlbMW8lqlwABAgQILBAQzAvQ7EKAAAECBLYScCp7K1ntEiBQtIDbpYou766Ds2Leld/BCRAgQIDAVQHBbEYQIECAAIGEBARzQsXQFQIECBAg4BqzOUCAAIEFAm6XWoBml0kCVsyTmGxEgAABAgTiCAjmOM6OQoAAAQIEJgkI5klMNiJAgAABAnEEXGOO4+woBAgUKPCRR69fGdXLX/pQgaM0pNgCVsyxxR2PAAECBAiMCFgxj+B4igABAiUK3P3A1ZX+0Bgfuc/qf8glxmOCOYayYxAgsKtA9zd13eL0TBnGgndKcO9a0MIPLpgLL7DhESCwnYBrytvZ1tyya8w1V9/YCRAgQCA5AcGcXEl0iAABAgRqFhDMNVff2AkQIEAgOQHXmJMriQ4RIJCLgPuYc6lUXv20Ys6rXnpLgAABAoULWDEXXmDDI0CAwJCAW6KGVNJ4TDCnUQe9IECAQDSBsXuYo3XCgY4KCOajNJ4gQIDAuID7mMd9PLtMwDXmZW72IkCAAIFKBLpPjos1XMEcS9pxCBAgQIDABAHBPAHJJgQIECBAIJaAa8yxpB2HAIEiBX72nqt/qendD/urTEUWOuKgrJgjYjsUAQIECBA4JSCYTwl5ngABAgQIRBQQzBGxHYoAAQIECJwScI35lJDnCRAgMCLgmvIIjqcWCVgxL2KzEwECBAgQ2EZAMG/jqlUCBAgQILBIwKnsRWx2IkCAwKWA26XMhLUFrJjXFtUeAQJJCsT+WMUkEXQqCwHBnEWZdJIAAQIEahEQzLVU2jgJECBAIAsB15izKJNOEiCQqoDbpVKtTL79smLOt3Z6ToAAAQIFCgjmAotqSAQIECCQr4Bgzrd2ek6AAAECkQRivqvfNeZIRXUYAgTKFHAfc5l13XNUVsx76js2AQIECBDoCQhmU4IAAQIECCQkIJgTKoauECBAgAAB15jNAQIECJwh4D7mM/DsOihgxTzI4kECBAgQILCPgGDex91RCRAgQIDAoIBgHmTxIAECBAgQ2EfANeZ93B2VAIGCBNzLXFAxExiKFXMCRdAFAgQIECDQCQhmc4EAAQKrC1xbvUUN1iMgmOuptZESIBBB4KlwjNfd88MXR/rFe643v/qF6xGO6hAlCQjmkqppLAQIRBf4zhC+d36oaW6EI385fH8xfN8evn/hc9ebp/6yaR57omnabXwRmCogmKdK2Y4AAQIDAv/48EPNEyF8b/+L8P1ntzTtivm6Cd13AAAIB0lEQVS54fuxkNSff03T3P/8Dw7s5SECxwUE83EbzxAgUJjAVn+679e/+v7md17wweb+r/1Ac+tfNc2twe2LIZQfDKF9LaylPxN+vsuqubDZtN1w3C61na2WCRCoQOC2ELgve+HXNS/55H9fjPZZf355Wvvx8P9/6fHrzY/8869dPH75bAUghni2gBXz2YQaIECgZoE7w+A/HkK5DeLn/U1YLX/pMpg/+qfhmnM4nf0rb/uN5hPXrjWvCM+/yqq55qkyeexWzJOpbEiAAIGbBb41PPSfT3/fFYL4Rvi+86+b5tu+0DTvuPV9zfMefs7FTtdCKN/34hfd3IBHCPQErJhNCQIECJwh8OGw7zeH7xeH78d/oGk+G5Y7n/3BpnlhCOif/t43fqXl9vr2u3/vnWccya61CFgx11Jp4yRAYBOBNnAPv+79+PXmyfDAHeHV9dObHFGjpQtYMZdeYeMjQCCqwGvu+KmL+5m/HP6nvXXqy+2FZl8EZggI5hlYNiVAgMApgc89+ZnmzvaNX+FNYLf/cdO8/tOvb9p3bt8avt/+lref2t3zBBqnsk0CAgQIrCTQBvBr3980H/2Jy3dmh88dab7lwaa5Hs52f/Kxpnnnm/+t+c2VjqWZcgWsmMutrZERIBBRoA3le8OHfN0IoRwWy81jP3557/IXwpuynwifyHnXHeGd2RH741D5Clgx51s7PSdAIDGB9vR1e325/UjOu/4kBHL47zeEG5zba813utScWLXS7Y4Vc7q10TMCBDISaHP3Rkjl9r8veXe4j/nupmnvYL413M/chvWXQmh/x29nNCBd3U1AMO9G78AECJQmcOPpFfOnQiK/95GmeTQM8F9/7jKYPx+WzRcrau/SzrbsW33Weh9EMPdF/EyAAIGFAm3mXpyxDuew3/ie8P0HTfOy8N0+9tibLj8V7LZXvn5h63arRUAw11Jp4yRAYFOBN3z/qy4SuA3hZ7/l8j7mi1Pb4YGvCqe229PZvghMERDMU5RsQ4AAgRMC73vHLzfhb1VcvPP6a34//E8b0k9/3x7++/XhtqkXvs07s08wejoICGbTgAABAmsJPCv8hak/bJrbwitrG8ptSrer5qfat2WH/9++4H737651MO2UKuB2qVIra1wECEQXePBHm+ZN72uavw3Xk9uV863huw3j9v+/8o/C32oOHz7y5P9F75YDZiZgxZxZwXSXAIF0BS7COKTx9723aV4dTl239zP/R/h+Rfj/7Wnu//qfpvnYfeH/+7vM6RYxgZ4J5gSKoAsECJQh8FT4S1O3hGC++A6vrneHQG6/ngqntR/8yXD71FvDR3OGny//QnMZYzaK9QWcyl7fVIsECFQo8E1hFdxeVv7EwNjf/+amCZ/U2Xwo/M8nwunsdrt2+4/3/mTkwK4eqlBAMFdYdEMmQGB9gTZk21PUL/qZpvmufwkfMPIPl8d49W81zTe+INxCFd4Y9tr2FfeN4TO0w4r6339o/T5osQwBwVxGHY2CAIEEBL499OF7fqxpvvi6prk3fBTnl8K7sS/enf30V/t/b3v6ndoHDyfQc11ISUAwp1QNfSFAIHuB9tpy+0avz73h8q9MtX9pqv16bviQkWth1fyx9q9MtW/X9kXgiIBgPgLjYQIECCwReCJ8HOcTT4Zbo94T9g4r5lvDfcy3h1fax+8NK+nw0J3h+wN/9/7mOX9/+5Lm7VOBgGCuoMiGSIBAHIF/CteZ3/q/15tPhb+/HLK5eSgE8B3PefblwR+O0wdHyV9AMOdfQyMgQGCGQPcXgtr/bvH1rueHdoXwFrTVtOk+5mpKbaAECBAgkIOAYM6hSvpIgAABAtUICOZqSm2gBAgQIJCDgGDOoUr6SIAAAQLVCAjmakptoAQIECCQg4BgzqFK+kiAAAEC1QgI5mpKbaAECBAgkIOAYM6hSvpIgAABAtUICOZqSm2gBAgQIJCDgGDOoUr6SIAAAQLVCAjmakptoAQIECCQg4BgzqFK+kiAAAEC1QgI5mpKbaAECBAgcK5A90dQzm1nbH/BPKbjOQIECBAgEFlAMEcGdzgCBAgQIDAmIJjHdDxHgAABAgQiCwjmyOAOR4AAAQIExgQE85iO5wgQIECAQGQBwRwZ3OEIECBw7Z7rTfvti8CQgGAeUvEYAQIEzhTogncogNtbbtpvXwSGBATzkIrHCBAgcKZAF7wC+EzICncXzBUW3ZAJECBAIF0BwZxubfSMAAECBCoUEMwVFt2QCRAgQCBdAcGcbm30jAABAgQqFBDMFRbdkAkQIEAgXQHBnG5t9IwAAQIEKhQQzBUW3ZAJECBAIF0BwZxubfSMAAECBCoUEMwVFt2QCRAgQCBdAcGcbm30jAABAgQqFBDMFRbdkAnULtB+TObQZ1jX7mL8aQgI5jTqoBcECBAgQOBCQDCbCAQIECBAICEBwZxQMXSFAAECBAgIZnOAAAECBAgkJCCYEyqGrhAgQIAAAcFsDhAgQIAAgYQEBHNCxdAVAgQIECAgmM0BAgQIECCQkIBgTqgYukKAAAECBASzOUCAAIGNBE59utip5zfqlmYTFxDMiRdI9wgQyFeg/ejP9msogNvHuufzHaGebyEgmLdQ1SYBAgQOBIYCeOgxaARaAcFsHhAgQIAAgYQEBHNCxdAVAgQIECAgmM0BAgQIECCQkIBgTqgYukKAAAECBASzOUCAAAECBBISEMwJFUNXCBAgQICAYDYHCBAgQIBAQgL/DxnPyIB6MF9lAAAAAElFTkSuQmCC;" vertex="1" parent="1">
          <mxGeometry x="-766.17" y="63.82" width="283" height="287.07" as="geometry" />
        </mxCell>
        <mxCell id="JWXI3P4WpeoxLLxnXd8x-11" value="" style="shape=image;verticalLabelPosition=bottom;labelBackgroundColor=default;verticalAlign=top;aspect=fixed;imageAspect=0;image=data:image/png,iVBORw0KGgoAAAANSUhEUgAAAyYAAAJJCAYAAABf4iMJAAAABHNCSVQICAgIfAhkiAAAIABJREFUeF7t3WuvLVtaF/Bah93dx1ZRYhrt2C98ZYwvFENCH7S1OyYSYwK4UVpUvARQ0BckmvgF/AbeBRFswIhC7OAVuSQaI7aiCeoLAjGGTrhEI5d00/bldJ9t1T6nzpm7Vs1LzRqjxjPG+O1k9+4z56xRz/g9Y81Z/1VVaz08+8iHnw3+ECBAgAABAgQIECBAoKDASwX3bdcECBAgQIAAAQIECBB4LiCYWAgECBAgQIAAAQIECBQXEEyKt0ABBAgQIECAAAECBAgIJtYAAQIECBAgQIAAAQLFBQST4i1QAAECBAgQIECAAAECgok1QIAAAQIECBAgQIBAcQHBpHgLFECAAAECBAgQIECAgGBiDRAgQIAAAQIECBAgUFxAMCneAgUQIECAAAECBAgQICCYWAMECBAgQIAAAQIECBQXEEyKt0ABBAgQIECAAAECBAgIJtYAAQIECBAgQIAAAQLFBQST4i1QAAECBAgQIECAAAECgok1QIAAAQIECBAgQIBAcQHBpHgLFECAAAECBAgQIECAgGBiDRAgQIAAAQIECBAgUFxAMCneAgUQIECAAAECBAgQICCYWAMECBAgQIAAAQIECBQXEEyKt0ABBAgQIECAAAECBAgIJtYAAQIECBAgQIAAAQLFBQST4i1QAAECBAgQIECAAAECgok1QIAAAQIECBAgQIBAcQHBpHgLFECAAAECBAgQIECAgGBiDRAgQIAAAQIECBAgUFxAMCneAgUQIECAAAECBAgQICCYWAMECBAgQIAAAQIECBQXEEyKt0ABBAgQIECAAAECBAgIJtYAAQIECBAgQIAAAQLFBQST4i1QAAECBAgQIECAAAECgok1QIAAAQIECBAgQIBAcQHBpHgLFECAAAECBAgQIECAgGBiDRAgQIAAAQIECBAgUFxAMCneAgUQIECAAAECBAgQICCYWAMECBAgQIAAAQIECBQXEEyKt0ABBAgQIECAAAECBAg8jATPjmZ49pEPH71L+yNAgAABAgQIECBAILDAkxIh4eGVpzeTlKjv5uK8kAABAgQIECBAgACBJAJPkoyycZAtYWMtxGzZfmNpXk6AAAECBAgQIECAQAGBIsFkyzzXQshaWJnGXHvtln15LQECBAgQIECAAAECZQTCB5M1lnMBZC2wnHvt2rgeI0CAAAECBAgQIECgjECVweQc1VoIWQsr0/Zrrz03rscJECBAgAABAgQIEMgr0FQwWaM6F0CWgeXc69bG9BgBAgQIECBAgAABAmkFmg8m57iWQWQOKsvHz23vcQIECBAgQIAAAQIE0gl0G0yWhHMgOT2TIqQslfw3AQIECBAgQIAAgTwCgsnC9TSMCCl5Fp1RCRAgQIAAAQIECCwFBJOlyMl/nwsp80ucUbmA5ykCBAgQIECAAAECGwQEkxux1kKIG+hvxPMyAgQIECBAgAABAlcEBJMrQJeeXoYVN9Bf0vIcAQIECBAgQIAAgfMCgsl5m83PuIF+M5kNCBAgQIAAAQIECDwXEEwyLIRz96Ysz7Bk2LUhCRAgQIAAAQIECFQpIJhkbttaSBFQMqMbngABAgQIECBAoDoBweTAli0v9RJQDsS3KwIECBAgQIAAgdACgkmB9ggoBdDtkgABAgQIECBAILSAYFKwPQJKQXy7JkCAAAECBAgQCCUgmARoxzKgTCW5zCtAY5RAgAABAgQIECBwmIBgchj19R25Uf66kVcQIECAAAECBAi0KSCYBO3r8iyKMyhBG6UsAgQIECBAgACBJAKCSRLGfIMIKPlsjUyAAAECBAgQIBBHQDCJ04uLlQgoF3k8SYAAAQIECBAgULmAYFJZAwWUyhqmXAIECBAgQIAAgZsEBJObmOK9SECJ1xMVESBAgAABAgQI3C8gmNxvF2JLASVEGxRBgAABAgQIECCwU+ClndvbPIjAFFCmvw+vPA1SkTIIECBAgAABAgQI3C4gmNxuVcUr53AioFTRLkUSIECAAAECBAi8IeBSrgaXgsu7GmyqKREgQIAAAQIEGhcQTBpusIDScHNNjQABAgQIECDQmIBg0lhD16YjoKypeIwAAQIECBAgQCCSgHtMInUjcy1ukM8MbHgCBAgQIECAAIG7BQSTu+nq3dAN8vX2TuUECBAgQIAAgVYFBJNWO3tlXs6eXAHyNAECBAgQIECAwKECgsmh3PF25uxJvJ6oiAABAgQIECDQo4Bg0mPXF3N29sQiIECAAAECBAgQKC0gmJTuQKD9O3sSqBlKIUCAAAECBAh0JiCYdNbwa9N19uSakOcJECBAgAABAgRyCAgmOVQbGNPZkwaaaAoECBAgQIAAgYoEBJOKmnV0qc6eHC1ufwQIECBAgACBfgUEk357f/PM57MnN2/ghQQIECBAgAABAgQ2CggmG8F6fblLu3rtvHkTIECAAAECBI4REEyOcW5iLy7taqKNJkGAAAECBAgQCCkgmIRsS+yiXNoVuz+qI0CAAAECBAjUKCCY1Ni1ADULJwGaoAQCBAgQIECAQEMCgklDzTx6Ku47OVrc/ggQIECAAAEC7QoIJu329pCZue/kEGY7IUCAAAECBAg0LyCYNN/iYybo0q5jnO2FAAECBAgQINCqgGDSamcLzMulXQXQ7ZIAAQIECBAg0IiAYNJII6NMw6VdUTqhDgIECBAgQIBAXQKCSV39qqZaZ0+qaZVCCRAgQIAAAQIhBASTEG1oswhnT9rsq1kRIECAAAECBHIICCY5VI35goAb4y0IAgQIECBAgACBawKCyTUhzycRcGlXEkaDECBAgAABAgSaFRBMmm1tvIm5tCteT1REgAABAgQIEIgiIJhE6URHdbi0q6NmmyoBAgQIECBA4EYBweRGKC9LKyCcpPU0GgECBAgQIECgdgHBpPYOVly/cFJx85ROgAABAgQIEEgsIJgkBjXcNgHhZJuXVxMgQIAAAQIEWhUQTFrtbEXzEk4qapZSCRAgQIAAAQKZBASTTLCG3SYgnGzz8moCBAgQIECAQGsCgklrHa14PsJJxc1TOgECBAgQIEBgp4BgshPQ5mkF5nDy8MrTtAMbjQABAgQIECBAILSAYBK6PX0WN4UTZ0/67L1ZEyBAgAABAv0KCCb99j78zIWT8C1SIAECBAgQIEAgmYBgkozSQDkEhJMcqsYkQIAAAQIECMQTEEzi9URFCwHhxJIgQIAAAQIECLQvIJi03+MmZiicNNFGkyBAgAABAgQInBUQTM7SeCKagHASrSPqIUCAAAECBAikExBM0lka6QAB4eQAZLsgQIAAAQIECBQQEEwKoNvlPgHhZJ+frQkQIECAAAECEQUEk4hdUdNVAeHkKpEXECBAgAABAgSqEhBMqmqXYgkQIECAAAECBAi0KSCYtNnXLmblrEkXbTZJAgQIECBAoBMBwaSTRrc6TeGk1c6aFwECBAgQINCbgGDSW8cbnK9w0mBTTYkAAQIECBDoTkAw6a7lbU54DicPrzxtc4JmRYAAAQIECBBoXEAwabzBPU1vCifOnvTUcXMlQIAAAQIEWhIQTFrqprk8FxBOLAQCBAgQIECAQH0Cgkl9PVPxDQLCyQ1IXkKAAAECBAgQCCQgmARqhlLSCggnaT2NRoAAAQIECBDIKSCY5NQ1dnEB4aR4CxRAgAABAgQIELhJQDC5icmLahYQTmruntoJECBAgACBXgQEk1463fk8hZPOF4DpEyBAgAABAuEFBJPwLVJgKgHhJJWkcQgQIECAAAEC6QWepB+ynxH/zl+8/sv8/sLf/nA/IBXMdA4n07/+ECBAgAABAgQIxBFwxiROL1RCgAABAgQIECBAoFsBwaTb1vc7cZd09dt7MydAgAABAgTiCggmcXujsowCwklGXEMTIECAAAECBO4QEEzuQLNJGwLCSRt9NAsCBAgQIECgDQHBpI0+msWdAsLJnXA2I0CAAAECBAgkFhBMEoMarj4B4aS+nqmYAAECBAgQaE9AMGmvp2Z0h4BwcgeaTQgQIECAAAECCQUEk4SYhqpbQDipu3+qJ0CAAAECBOoWeBgPxp7VPQXVE0gr8PDK02EKKf4QIECAAAECBAgcJ+CMyXHW9lSJgDMnlTRKmQQIECBAgEBTAoJJU+00GQIECBAgQIAAAQJ1CggmdfZN1ZkFnDXJDGx4AgQIECBAgMBCQDCxJAicERBOzsB4mAABAgQIECCQQUAwyYBqyHYEhJN2emkmBAgQIECAQGwBwSR2f1QXQEA4CdAEJRAgQIAAAQLNCwgmzbfYBAkQIECAAAECBAjEFxBM4vdIhQEEnDUJ0AQlECBAgAABAk0LCCZNt9fkUgoIJyk1jUWAAAECBAgQeFFAMLEiCGwQEE42YHkpAQIECBAgQGCDgGCyActLCUwCwol1QIAAAQIECBBILyCYpDc1YgcCwkkHTTZFAgQIECBA4FABweRQbjsjQIAAAQIECBAgQGBNQDBZU/EYgRsEnDW5AclLCBAgQIAAAQI3CggmN0J5GYE1AeFkTcVjBAgQIECAAIHtAoLJdjNbEHhBQDixIAgQIECAAAEC+wUEk/2GRiDgJ3VZAwQIECBAgACBnQKCyU5AmxOYBZw5sRYIECBAgAABAvcLCCb329mSwCMB4eQRiQcIECBAgAABAjcJCCY3MXkRgdsFhJPbrbySAAECBAgQIDALCCbWAoEMAsJJBlRDEiBAgAABAk0LCCZNt9fkCBAgQIAAAQIECNQhIJjU0SdVVijgrEmFTVMyAQIECBAgUExAMClGb8c9CAgnPXTZHAkQIECAAIEUAoJJCkVjECBAgAABAgQIECCwS0Aw2cVnYwLXBZw1uW7kFQQIECBAgAABwcQaIHCAgHByALJdECBAgAABAlULCCZVt0/xNQkIJzV1S60ECBAgQIDA0QKCydHi9keAAAECBAgQIECAwCMBweQRiQcI5BNw1iSfrZEJECBAgACBugUEk7r7p/oKBYSTCpumZAIECBAgQCC7gGCSndgOCDwWEE4em3iEAAECBAgQ6FtAMOm7/2ZfUEA4KYhv1wQIECBAgEA4AcEkXEsURIAAAQIECBAgQKA/AcGkv56bcSABZ00CNUMpBAgQIECAQFEBwaQov50TGAbhxCogQIAAAQIECAyDYGIVEAggIJwEaIISCBAgQIAAgaICgklRfjsn8JaAcGI1ECBAgAABAj0LCCY9d9/cwwkIJ+FaoiACBAgQIEDgIAHB5CBouyFAgAABAgQIECBA4LyAYHLexjMEigg4a1KE3U4JECBAgACBwgKCSeEG2D2BNQHhZE3FYwQIECBAgEDLAoJJy901t6oFhJOq26d4AgQIECBAYKOAYLIRzMsJECBAgAABAgQIEEgvIJikNzUigWQCzpokozQQAQIECBAgEFxAMAneIOUREE6sAQIECBAgQKAHAcGkhy6bIwECBAgQIECAAIHgAk/W6nt45enaw2cfm76j6w8BAvkE5rMmvtbyGRuZAAECBAgQKCvwMO7+2bKErQc/twSZrWMua/LfBAgMw/S15mvJSiBAgAABAgRaFHgYD3IeBZMcE12GFwdXOZSN2YOAcNJDl82RAAECBAj0J7B6KVcOhmUQOQ0qy+dy7N+YBAgQIECAAAECBAjEFTjsjMklAmdTLul4jsBjAWdNHpt4hAABAgQIEKhbIEQwWRLOQcWZlKWM/ybwloBwYjUQIECAAAECLQmEDCYzsIDS0lIzlxwCwkkOVWMSIECAAAECJQRCB5MZREApsTTssxYB4aSWTqmTAAECBAgQuCRw2M3vl4q49tx8SZeAck3K8wQIECBAgAABAgTqFKjijMmSdg4o0+PuQ1nq+O8eBZw16bHr5kyAAAECBNoSqDKYnLbAAVlbC9Js7hfwtXC/nS0JECBAgACB8gIvlS9hXwXTGZPpgOz0LMq+EW1NoE6B+WuhzupVTYAAAQIECPQuUP0Zk9MGugel9+Vs/pOAMyfWAQECBAgQIFCjQPVnTE7Rp+8Y+65xjctQzQQIECBAgAABAr0LNBVM5mYKJ70v677nb/333X+zJ0CAAAECtQo0GUymZjg4q3VJqjuFgPWfQtEYBAgQIECAwJECzQaTCdGN8UcuJfsiQIAAAQIECBAgcL9A08FkYnHfyf2Lw5Z1CzhrUnf/VE+AAAECBHoTaD6YzA11kNbb0jbfScC6tw4IECBAgACBWgS6CSZTQxyk1bIs1ZlSwLpPqWksAgQIECBAIJdAV8FkQnTfSa6lZFwCBAgQIECAAAEC9wt0F0wmKved3L9gbFmngLMmdfZN1QQIECBAoCeBLoPJ3GBnT3pa6uYqnFgDBAgQIECAQGSBroPJ1BhnTyIvT7WlFhBOUosajwABAgQIEEgl0H0wmSEdsKVaUsYhQIAAAQIECBAgsF1AMDkxE062LyBb1CdgndfXMxUTIECAAIEeBASTRZcdtPWw7M3ROrcGCBAgQIAAgWgCgslKRxy0raB4iAABAgQIECBAgEBGAcHkDK5wcgbGw80IWOPNtNJECBAgQIBAEwKCyYU2OnC7gOOpJgSs8SbaaBIECBAgQKAJAcHkShsduF0B8nT1AtZ49S00AQIECBAg0ISAYHJDGx243YDkJQQIECBAgAABAgR2CAgmN+IJJzdCeVmVAtZ3lW1TNAECBAgQaEpAMNnQTgdvG7C8tDoB67u6limYAAECBAg0JSCYbGyng7eNYF5elYD1XVW7FEuAAAECBJoSEEzuaKeDtzvQbFKNgPVdTasUSoAAAQIEmhIQTO5sp4O3O+FsRoAAAQIECBAgQGBFQDBZQfEQgd4FBO/eV4D5EyBAgACB4wUEkx3mDt524Nk0vID1Hb5FCiRAgAABAk0JCCY72+ngbSegzQkQIECAAAECBAiMAoJJgmUwh5OHV54mGM0QBOIICN5xeqESAgQIECDQuoBgkqjD0wGcg7hEmIYJJWBdh2qHYggQIECAQLMCgkni1jqISwxquBAC1nWINiiCAAECBAg0LSCYZGivg7gMqIYkQIAAAQIECBBoWkAwabq9JkcgnYDAnc7SSAQIECBAgMBjAcHksUmSRxzEJWE0SDAB6zpYQ5RDgAABAgQaEhBMMjbTQVxGXEMXE7Cui9HbMQECBAgQaFpAMMncXgdxmYENT4AAAQIECBAg0ISAYHJAG4WTA5Dt4lABa/pQbjsjQIAAAQJdCAgmB7XZgdxB0HZzmIA1fRi1HREgQIAAgS4EBJMD2+xA7kBsuyJAgAABAgQIEKhKQDA5uF3CycHgdpdVwHrOymtwAgQIECDQlYBg0lW7TZZAegHhJL2pEQkQIECAQI8CgkmBrjuQK4BulwQIECBAgAABAqEFBJNC7RFOCsHbbRYB6zkLq0EJECBAgEBXAoJJwXY7mCuIb9fJBazn5KQGJECAAAECXQkIJoXb7WCucAPsngABAgQIECBAIISAYBKgDcJJgCYoIYmAtZyE0SAECBAgQKBLAcEkSNsd0AVphDJ2C1jLuwkNQIAAAQIEuhQQTAK13QFdoGYohQABAgQIECBA4FABweRQbjsj0IeAkN1Hn82SAAECBAikFBBMUmomGMsBXQJEQ4QQsJZDtEERBAgQIECgGgHBpJpWKZQAAQIECBAgQIBAuwKCScDe+k5zwKYo6S4Ba/kuNhsRIECAAIEuBQSToG13QBe0McraLGAtbyazAQECBAgQ6FJAMAncdgd0gZujtE0C1vImLi8mQIAAAQJdCggmwdvugC54g5RHgAABAgQIECCQREAwScKYdxDhJK+v0Y8RsI6PcbYXAgQIECBQq4BgUknnHNRV0ihlXhSwji/yeJIAAQIECHQtIJhU1H4HdRU1S6lnBazjszSeIECAAAECXQsIJl233+QJECBAgAABAgQIxBAQTGL04eYqfLf5ZiovDCxgHQdujtIIECBAgEAhAcGkEPye3Tqo26Nn2ygC1nGUTqiDAAECBAjEEBBMYvRhcxUO6jaT2YAAAQIECBAgQCCwgGASuDlKI9C6gIDdeofNjwABAgQI3C4gmNxuFe6VDurCtURBdwhYx3eg2YQAAQIECDQoIJhU3lQHdZU3UPkECBAgQIAAAQLPBQSTBhaCcNJAEzufgjXc+QIwfQIECBAgMAoIJo0sAwd2jTSy42lYwx0339QJECBAgMAoIJhYBgQIECBAgAABAgQIFBcQTIq3IF0BvuOcztJIZQSs4TLu9kqAAAECBCIICCYRupCwBgd2CTENVUTAGi7CbqcECBAgQKC4gGBSvAXpC3Bgl97UiMcKWMPHetsbAQIECBCIICCYROhChhoc2GVANSQBAgQIECBAgEA2AcEkG62BCRDYIyBc79GzLQECBAgQqE9AMKmvZzdX7MDuZiovDCpgDQdtjLIIECBAgEAGAcEkA2qkIR3YReqGWu4RsIbvUbMNAQIECBCoT0Awqa9nmyt2YLeZzAbBBKzhYA1RDgECBAgQyCAgmGRAjTikA7uIXVETAQIECBAgQIDALCCYWAsECFQhIFxX0SZFEiBAgACBuwUEk7vp6tvQgV19PVPxiwLWsBVBgAABAgTaFRBM2u3t6swc2K2yeLAiAWu4omYplQABAgQIbBAQTDZgtfJSB3atdLLfeVjD/fbezAkQIECgXQHBpN3emhmBpgWEk6bba3IECBAg0KGAYNJh06cpO6jrtPGmTYAAAQIECBAIKiCYBG3MEWUJJ0co20dOAWs4p66xCRAgQIDAsQKCybHe9kaAQGIB4SQxqOEIECBAgEAhAcGkEHyU3Tqoi9IJdewRsI736NmWAAECBAjEEBBMYvShaBUO6ory2zkBAgQIECBAgMAoIJhYBs8FhBMLoXYBa7j2DqqfAAECBHoXEEx6XwHmT6AhAeGkoWaaCgECBAh0JyCYdNfy8xN2UHfexjMECBAgQIAAAQJ5BQSTvL7VjS6cVNcyBS8ErGFLggABAgQI1CkgmNTZt6xVO7DLymvwAwSs4QOQ7YIAAQIECCQWEEwSgxqOAIEYAsJJjD6oggABAgQI3CogmNwq1dnrHNR11nDTJUCAAAECBAgUFhBMCjfA7gkQyCcgYOezNTIBAgQIEEgtIJikFm1oPAd1DTWz46lYxx0339QJECBAoCoBwaSqdh1frIO6483tkQABAgQIECDQo4Bg0mPXN85ZONkI5uXhBKzhcC1REAECBAgQeCQgmDwi8QABAgQIECBAgAABAkcLCCZHi1e6P99xrrRxyn5TwBq2GAgQIECAQGwBwSR2f0JV58AuVDsUQ4AAAQIECBBoSkAwaaqd+ScjnOQ3tod8AtZvPlsjEyBAgACBvQKCyV5B2xMgUJWAcFJVuxRLgAABAh0JCCYdNTvVVB3YpZI0TikBa7iUvP0SIECAAIHzAoLJeRvPXBBwYHcBx1MECBAgQIAAAQKbBQSTzWQ2IECgBQHhuoUumgMBAgQItCQgmLTUzYPn4sDuYHC7Sy5gDScnNSABAgQIELhbQDC5m86Gk4ADO+ugdgFruPYOqp8AAQIEWhEQTFrpZMF5OLAriG/XSQSs4SSMBiFAgAABArsEBJNdfDYmQIAAAQIECBAgQCCFgGCSQtEYLumyBqoXcNak+haaAAECBAhULiCYVN7ASOU7sIvUDbXcI2AN36NmGwIECBAgkEZAMEnjaJQ3BBzYWQq1C1jDtXdQ/QQIECBQq4BgUmvn1E2AQDYB4SQbrYEJECBAgMBZgSdnn/EEgTsF5oO66V9/CBAgEFXg4ZWnL5TmPStqp9RFgEAvAs6Y9NLpg+fpO84Hg9tdcgFrODmpAQkQIECAwEUBweQijycJEOhZQDjpufvmToAAAQJHCwgmR4t3tD8HdR01u+GpWscNN9fUCBAgQCCUgHtMQrWjvWLcb9JeT82IQCsCl+4pcf9JK102DwIEahJwxqSmbqmVAIEiAs6aFGG3UwIECBDoTEAw6azhJabroK6Eun2mFrCOU4sajwABAgQIvCjgUi4r4hABl3QdwmwnBAgcJOBSr4Og7YYAga4EBJOu2m2yBAjsERCw9+jVte2l+0/qmolqCRAgUI+AS7nq6VX1lboUpvoWmsAoYB1bBgQIECBAII+AYJLH1ahnBBzUnYHxcFUC1nFV7VIsAQIECFQi8DB+wD6rpFZlNiQwXZ/tUomGGtrpVKzjTht/ZdruP7kC5GkCBAicEXDG5AyMhwkQIHBNwJmTa0KeJ0CAAAECtwsIJrdbeWVCAQd0CTENVVTAWi7Kb+cECBAg0JCAYNJQM2ubigO62jqm3nMC1vI5GY8TIECAAIHbBfy44NutvDKDwHxA536TDLiGJECgiMCl9zP3nxRpiZ0SIFCJgDMmlTSq5TJ9t7nl7vYzN+u4n16bKQECBAjkERBM8rgalQCBDgWEkw6bbsoECBAgkExAMElGaaA9Ag7o9ujZNpKAtRypG2ohQIAAgZoE/B6TmrrVQa1+L0QHTe5kitZyJ41OOE33nyTENBQBAlUKOGNSZdvaLdp3m9vtrZkRIECAAAECBC4JCCaXdDxXREA4KcJup4kFrOPEoIYjQIAAgeYFBJPmW2yCBAiUEhBOSsnbLwECBAjUKOAekxq71knNrtHvpNEdTNNa7qDJB0zRPSgHINsFAQJFBZwxKcpv55cEfLf5ko7nCBAgQIAAAQJtCQgmbfXTbAgQCCggZAdsipIIECBAIJyAYBKuJQo6FXBAZz0QIECAAAECBPoQcI9JH32ufpau0a++hSYwCljHlgEBAgQIEDgv8OT8U54hQIAAgZQC8xnA6V9/CKQUcGN8Sk1jESBQSsClXKXk7XeTgEu6NnF5cWABazlwc5RGgAABAkUFBJOi/Ha+RcAB3RYtr40sYC1H7o7aCBAgQKCUgGBSSt5+CRDoWkA46br9Jk+AAAECKwJufl9B8VBsATcQx+6P6rYJWM/bvLx6m4B7T7Z5eTUBAmUFnDH6aBB8AAAgAElEQVQp62/vdwj4TvMdaDYJK2A9h22NwggQIEDgYAHB5GBwu0sj4GAujaNRCBAgQIAAAQJRBASTKJ1QBwEC3QoI2t223sQJECBA4ETAPSaWQ9UCrs+vun2KXwhYz5YEAQIECPQsIJj03P1G5u5grpFGmsZzAevZQjhKwI3xR0nbDwECtwq4lOtWKa8LK+AymLCtURgBAgQIECBA4GYBweRmKi8kQIBAfgFBO7+xPRAgQIBATAHBJGZfVLVRwMHcRjAvDy1gPYduj+IIECBAIJOAe0wywRq2jIDr88u422seAes5j6tRrwu4/+S6kVcQIJBewBmT9KZGJECAQBIBZ06SMBqEAAECBCoREEwqaZQybxNwIHebk1fVI2BN19MrlRIgQIDAPgHBZJ+frQMKOJAL2BQl7RKwpnfx2ZgAAQIEKhF4UkmdyiRAgEDXAnM4mf71h0BuAesst7DxCRBYExBM1lQ8Vr2Ag7jqW2gCBAgEFHBTfMCmKIlAQwIu5WqomabyooDLX6yI1gSs6dY6aj4ECBAgcCogmFgPBAgQqEhAOKmoWUolQIAAgU0CgskmLi+uTcBBXG0dU+8tAtb1LUpeQ4AAAQK1CfgFi7V1TL13CfhFdXex2Si4gHUdvEHKI0CAAIFNAoLJJi4vrlnAQVzN3VP7OQHr+pyMx48UcFP8kdr2RaBdAZdytdtbMyNAoAMBl3V10GRTJECAQCcCgkknjTbNYXAAZxW0KmBtt9pZ8yJAgEBfAoJJX/3ufrYO4LpfAgAIECBAgACBoALuMQnaGGXlFXBdfl5fo5cRsK7LuNsrAQIECKQRcMYkjaNRKhNw5qSyhin3JgHr+iYmLyJAgACBoAJPgtalLAIECBC4Q+A0nEz/3x8CpQX8xK7SHbB/AvUIOGNST69UmljAd5cTgxoujMC0tq3vMO1QCAECBAjcKCCY3AjlZW0KOHhrs69m9bqA9W0lECBAgEBNAoJJTd1SKwECBDYKCCcbwbycAAECBIoJuMekGL0dRxGYD9xcjx+lI+ogQKAlAe+tLXXTXAjkFfDjgvP6Gr0iAT9qtaJmKXWzgPW9mcwGmQXcFJ8Z2PAEKhRwKVeFTVNyHgGXvORxNWoMAes7Rh9UQYAAAQLnBQST8zaeIUCAQFMCwklT7TQZAgQINCcgmDTXUhPaI+DAbY+ebWsQsMZr6JIaCRAg0KeAe0z67LtZXxFwPf4VIE9XL2CNV99CEyBAgEBzAoJJcy01oVQCDtxSSRonqoA1HrUz/dblhvh+e2/mBCYBl3JZBwQIEOhUwGVdnTbetAkQIBBUQDAJ2hhllRdw0Fa+ByrIL2Cd5ze2BwIECBC4TcAvWLzNyas6FZgP2qZ//SHQqsBpOLHWW+2yeUUQWF6qFqGmuQZf+5G60W8tgkm/vTdzAgQIvCkwH5S478SiKClQ68HxrYEj8vzOzSFyzSXXqn3nEXDzex5XozYm4GCtsYaazkUB6/0ijyc7Ejh3sL4kaPng/ZxBy3Ne9td/HycgmBxnbU+VCzhYq7yByt8kYL1v4vLizALLg+McB8XLfUxTyrGfzFSHDb/mxeww/mZ35FKuZltrYqkFpg8oB2upVY0XVcB6j9oZdaUQWDuoFkK2yZ7zWtqee922vXl1LwKCSS+dNk8CBAhsFJjDybSZg4uNeF4eRmB5oGw9523N8r3i1H/5XN5KjF6jgGBSY9fUXEzAd5GL0dtxIYH5QMLZwkINsNvNAssg4mB4M2HSDU79hZSktE0O5h6TJttqUrkFHKTlFjZ+RAHrPmJX+qppGTrWZi+IrKnEe2zupX7F603JigSTkvr2XbWAg7Sq26f4OwWs+zvhbLZZYC2EOIjdzBh+AwElfIsOLVAwOZTbzloTcJDWWkfN5xYB6/4WJa/ZInBvCFluJ7hsUY/12tNe6mOs3hxZjXtMjtS2LwIECDQgMB00CCcNNLLgFASKgvhBd+1elKCNObgsweRgcLtrS8ABWlv9NJvbBea1P23hu5u3u/X4ymUIsWZ6XAXb5iykbPNq6dWCSUvdNJciAsJJEXY7DSAwHzzMB54CSoCmBChhGUSsiwBNqbiEtZBiTVXc0CulCyZXgDxNgAABApcFTgOKA4bLVq09uwwh0/yOXANH7qu13tU4n9P3mqPXWo1eNdbs5vcau6bmkAKuuQ/ZFkUdLODsycHgB+9uGUQiBoMaajy4bc3uzvtNe611xqS9nppRIYHpA1o4KYRvt2EEfEczTCuSFOIgPwmjQTIJeL/JBFtwWMGkIL5dtycgnLTXUzO6T+D0gCHid9Xvm1XbWy1DyDRbvWu7563MzvtNK50cBsGknV6aCQECBMIJzGF9KsxBbqz2LIOI/sTqj2q2C3i/2W4WbQv3mETriHqaEHBJVxNtNInEAq4HTwy6cThBZCOYl1ct4HO4zvYJJnX2TdUVCHhTrKBJSiwiIKDkYV8Gj+VenBFZivjv1gW819TXYcGkvp6puCIB4aSiZin1cAEHDfvIl0FE8LjsyeuyT8vP+iyup7vuMamnVyqtUGC+3tUBQ4XNU3J2gfnrwgHjY+qlyeNXuGdnzcRjBNYE3HuyphLzMcEkZl9URYAAgW4ElsF9eVC+fL5FmB7n3GIfzSmuwOk3Qnp4T4nbicuVCSaXfTxLYLeAsya7CQ3QmcDyoGF50D5xLF9TA9HaPOa6a5xPDeZqJLAUmD+Ta30fWc6ntf92j0lrHTWfsAKucQ3bGoVVKLB2kF/i4H6tjnOcJeo7V4vHCRAY/FLkgItAMAnYFCW1KyCctNtbMysvsCUkpKpW2EglaRwCZQTm9w1fy2X8l3sVTJYi/ptAZgHhJDOw4QkQIHCjwDLMOji9Ea7Bl/lsjtHUl2KUoQoCBAgQIECAAAECZQRO7z0pU4G9TgKCiXVA4GABb34Hg9sdAQIECBC4QWD+fF6eSbthUy9JJCCYJII0DIEtAsLJFi2vJUCAAAECxwhMn88+o4+xXtuLHxe8puIxAgQIECBAoHkB95Q03+K7JziHE2vkbsK7NnTG5C42GxHYL+A7MvsNjUCAAAECBHIJ+JzOJXt+XMHkvI1nCGQX8KaXndgOCBAgQIDA3QLz57T7Tu4m3LShS7k2cXkxAQIECBAg0LLA8gDUpTwtd/u2uc1rwI8Uvs1rz6ucMdmjZ1sCCQScNUmAaAgCBAgQIJBZwOd1ZuBxeMEkv7E9ELgq4M3uKpEXECBAgACB4gI+r/O2QDDJ62t0AgQIECBAgACBhgSEk3zNfBhxn+Ub3sgECGwRcP3qFi2vJXBZwNfTZR/PEiCwT8B7zD6/ta2dMVlT8RiBQgK+C1MI3m6bE1geMCxvaG5uwiZEgMDhAj6z05M7Y5Le1IgEdgssD6p2D2gAAh0LLL+elv/dMY2p3yiwDLbTAak/BGYB7ynp1oIzJuksjUQgmYDvwiSjNBCB4fQgcj6AmP5dHmyiIkCAwD0CPrPvUVvfRjBZd/EogeIC3uiKt0ABDQrMIWX6d/7/QkqDjTYlAgSqFBBMqmybonsREE566bR5lhQQUkrq2zeBNgR8Xqfpo3tM0jgahUBWAdevZuU1eCMCp18np5dszWdGtkxzvszrnm237MdrCRBoS8Dn9b5+OmOyz8/WBAgQIBBY4DRYzGHjlntL5rMoW7YJzKA0AgQOEnDmZB+0Myb7/GxN4DAB34U5jNqOGhK4duZky9eVsygNLYwEU1kGXGfXEqA2NMSW95aGpr17Ks6Y7CY0AIFjBHwX5hhne2lLYD5YPHfmZH78ljMj81mUtoTMhgCBHAI+s+9TFUzuc7MVAQIECFQqsAwra2dVlt8NP53q9Nyl5ytlUTYBAokFhJPtoILJdjNbECgm4E2uGL0dNyxwLqhMU14LIPOZEwGl4UVhagQSCfjc3gbpHpNtXl5NIISAa1dDtEERjQucnkmZpjoHmManbXoECCQW8Jl9O6hgcruVVxIIJeCNLlQ7FEOAAAECBM4K+Mw+S/PCEy7lus3JqwiEE3B6OFxLFNSxwNolXx1zmDoBAgTuEnDG5C42GxGII+C7MHF6oZL2BeYAsnZZl6/F9vt/aYbLcLq2Ri5t77n2BbxHXO+xMybXjbyCQGgBZ05Ct0dxjQnMN76vTcuB6JqKxwgQmAV8Xl9fC4LJdSOvIBBewJtd+BYpkAABAgQIPP8hGsuza1jeEhBMrAYCBAgQILBBYDqoWDuwWHtsw7BeSoBAJwLCyflGu8fkvI1nCFQn4PrV6lqm4MYEfA021lDTIZBRwPvFY1xnTB6beIRAtQK+C1Nt6xTeiID7TBpppGkQOEDAZ/Zj5CePH/IIAQIECBAgcElgvmxLELmk5Lnl5X3WizVB4LKAMyaXfTxLoDoB34GprmUKrlBg+jpbO8hcHohWODUlEyBwoIDP7BexBZMDF59dEThKwBvdUdL2Q+BFAV97VgQBAgTuFxBM7rezJYHQAg6QQrdHcQ0InDs7snYmpYHpmgIBApkEfF6/BeuncmVaZIYlEEXAT/2I0gl1tCjg66vFrpoTgTIC3k+GwRmTMmvPXgkcJuA7MYdR21GHAs6OdNh0UyZAIJuAYJKN1sAE4ggIJ3F6oZL2Babvep67zKv92ZshAQL3CvisHgaXct27emxHoEIBp4krbJqSwwrM4cNZk7AtClfYMrBaO+FaFKKgnj+rnTEJsQQVQeAYAd+NOcbZXvoQmL6eHFj20WuzJEDgGAHB5BhneyEQRkA4CdMKhRAgQIAAgUcCPX9OCyaPloMHCLQv0PObXvvdNcMjBJaX5Mz7PPf4ETXZBwECBGoXcI9J7R1UP4EdAj1fx7qDzaYE3hRY+xpaewwZAQIEtgr0+F7ijMnWVeL1BBoScOakoWaaShGBtXtM1h4rUpydEiBAoDIBwaSyhimXAAECBMoLuGSrfA9UQKB1gR6/eSiYtL6qzY/AFYEe3/iukHiawFWBta8bYeUqmxcsBKY1c/oXEIHeBQST3leA+RMYBdYOssAQILAuMAeQ5SVbvo7WvTxKgMD9Ar29rzy5n8qWBAgQIFBa4Iu/7enVEv7rN3z46mu84HaB+UBhGUymEdYeu31kryRAgEDfAs6Y9N1/syfwpkBv35XRegJ7BASQPXq2JUBgi0BPn8+CyZaV4bUEGhfo6c2v8VaaXiaBc/eRnHs8UxmGbURges89/dvItEyDwN0CgsnddDYk0KaAcNJmX80qjcC5r49zj6fZq1EIEOhdoJf3GPeY9L7SzZ/AisD8Bjj96w8BAsPzn5w0fz0svy7m55aPcyOwVWB55q2mNeV+t63d9vo1AcFkTcVjBAi8+ZO6avpg1DYCuQQufR0I8rnUjVubwKUftHFLcKltvkfX28N7jUu5jl5V9kegIoH5TbCikpVKIJvA8rvZpzu6FFyyFWRgAgQINCYgmDTWUNMhkFpAOEktaryaBE7DyDJ8XAoqNc1RrQQIEIgi4FKuKJ1QB4HAAj2cPg7MrzQCBDoRWIbfTqZtmhsEWv88Fkw2LAYvJdCzQOtvhrX29tI13bXOqXTdl250P63NQWTpTtk/AQKtCbiUq7WOmg+BjAIu68qIa+jNArkupbq2znPtdzOADQgQ6FLg2ntUzSiCSc3dUzuBAgItvyEW4LTLOwVOz2rcOcQLmy3DxqWzIZeeS1GLMQjMAtO6PP1LhkDrAi7lar3D5kcgg4DLujKgGnKTwK3hYBlgTv97+dytBdy73a3jex2BWgX8SODjOtfq57BgctwasicCTQm0+qbYVJM6n8xagDgXaM49PhEux7n02s7JTb9jAfe7ddz8hFN3KVdCTEMR6E1gDie9zdt8jxeYwsGWP3OYWG53+t8CxhZRryVAIJpAi5/BD+OknkWDVg8BAnUJLL+jXFf1qo0uUGJ9ldhn9D6ojwCBeAKtvVc5YxJvjamIQHUCLX7XpromNFywMxsNN9fUCBAgcCIgmFgOBAgkERBOkjAapJDA8pIvYahQI+yWAIFNAq199gomm9rvxQQIXBJo7Q3y0lw9F0/gNFwsg8a1/443GxUReFFgWsOnf/kQaFFAMGmxq+ZEoKCAcFIQv+Ndn15nvbzm+tp/T2zOkHS8eEydQOUCLX3uCiaVL0blE4go0NKbZERfNT0WOA0Wy5Bx7b8fj+YRAgQIECghIJiUULdPAh0ICCcdNNkUCRAgQIBAQgG/YDEhpqEIEHhRYA4ny+9YcyJAgACBbQLeR7d5eXWdAs6Y1Nk3VROoRsCZk2papVACBAgQqFSglc9awaTSBahsAjUJtPKGWZO5WgkQIECAQG0CLuWqrWPqJVCpgMu6Km2csgkQCCmw/BHYLvUK2SZFbRRwxmQjmJcTIHC/gDMn99vZkgABAgQItC4gmLTeYfMjEExAOAnWEOUQIECAQBMCLXy+CiZNLEWTIFCXQAtvnnWJq5YAAQIECMQXeBgPEJ7FL1OFBAi0KLD8jdwtztGcCBAgQIDAkQI1f7Y6Y3LkSrEvAgReEHDmxIIgQIAAAQIEZgHBxFogQKCogHBSlN/OCRAgQIBAGAGXcoVphUII9C1Q86nnvjtn9gQIlBbwo4NLdyDe/mv9THXGJN5aUhGBLgXmMyfLD9guMUyaAAECBAh0KCCYdNh0UyYQVWAKJy7titoddREgQIAAgbwCgkleX6MTIHCHgHByB5pNCBAg8IbAJ4bPDq8+PHnT46985unwRa885UMgvMBbqzZ8qQokQKAngTmcTP/6Q4AAAQLnBZbvk78yBpNvfO+XD58bN5m+A/2OHzi/rWcIRBJw83ukbqiFAIFHArXewPdoIh4gQIDAAQJfP54ZeW3cz8P49/+Mf3/zvxqGT/2hYfjQ+E2e94zP/ez42DLIHFCWXRQQqPHz0xmTAgvFLgkQuF3AmZPbrbySAIF+BaZLtd7/w8Pwtn89Gnz2Yfjklz8b3j2eKflr7/wnw8sfedubMO/ql8jMKxBwj0kFTVIigd4F3HPS+wowfwIErgn8+HhG5HOfHYa//xVvG75lDCXPxoDy6h8chg/+vg8Of/kTT4cvGYPL+J/Ds/Hv+9xvco3T84UEBJNC8HZLgMA2AeFkm5dXEyDQn8Df/PUfHj776qvPJ/6T//z1EPKZfzEMHx+v7fo949mUbxvDyzvG5z7ZH40ZVyLgHpNKGqVMAgReF6jxmlm9I0CAQG6B6YzI28ed/Ifx7zf/u/Eek88Mwy/+gWH4gh8chp/+smH4Z+Pj7i3J3YV449f2mekek3hrSEUECFwQOD1z4kP2ApSnCBDoSmA6EzL9FK5vGv9+3/uH4efGf//sdNZkPFvyE+NlXf/vnf+4Kw+TrVPApVx19k3VBLoWmAKJS7u6XgImT4DAQuDfj++LPzU+NmaR4WffeI8cxqu6fmG8seT3j/9+8P1/jFmHArV9VgomHS5SUybQikBtb7ituJsHAQIxBX5hLOtnTn73019993c/v9n9pfFo73/8w/Gsyac+/Wbhv+tr/1LMSaiqawGXcnXdfpMnUL/AHE5c1lV/L82AAIF9Asv3wXc9vPz8d5pMl3O97/PGsyYf+JrhPd//+j7++//cty9bE8gh4IxJDlVjEiBwqMAcTqab/PwhQIAAgdcFXh4+b3j79w3Dv/mK8ab4rxl/vcn3jpd5feUwvDbejPLebxnPpHjP7GKp1HR1gWDSxZI0SQLtC0xvvDW9+bbfETMkQKCkwJMxdHzT/376/Le/f3T8+77xGpkf+uph+KXvGG+M/6rxp3aNZ1Cm3w7vD4FIAoJJpG6ohQCB3QLCyW5CAxAgULnAD/6nH38+g18ef+Hikz86DNNve//J8f//tvHf3zBe1jX99K7f+muG4Xf/jconqvzmBAST5lpqQgQICCfWAAECPQt82Xu/6Pn0f+34d7r5/f3fOgy//T3D8KvG//+Rrx8v5Rr//b9jUJl+8aLLuXpeKfHmLpjE64mKCBBIIOC+kwSIhiBAoFqBKZC8NgaPKYT8/Hi0910/M/6ixfH//5bx7y/9rWH49NcOw+ePScXlXNW2uMnC/VSuJttqUgQITALzT6ip7Tff6h4BAgT2CnxuvO/u6z46/jb48ccEv/Ynh+EPjze7vzz9avjxzy9+YrwRfvz3XS8Pw+/46+N75bNnw8ODiLLX3Pb7BZwx2W9oBAIEggs4exK8QcojQCCLwIfG36n468aRp7MnvzDeWDLmj+dnUb5gPFPyheNN8NN3p3/jN4//ful4N7w/BAIICCYBmqAEAgTyC/ipXfmN7YEAgXgCL71xIuQL3zHWNiWU8e98mdd0AmV6+ov/Xry6VdSngGDSZ9/NmkC3Am6M77b1Jk6gO4Hpcq6H8Uhv/MnAw9vH/5nOmEx/f2y8Af5Hx78//6eH4Td9z+ss0+Vc/hAoLeAek9IdsH8CBA4XOA0n830ohxdhhwQIEDhA4DvHX6z4p/7RMHzsY8PwX77x9cu3prMkv/cfjD+R6+R3mbw0Xs71pePjPzqGGX8IlBJwxqSUvP0SIFBUwKVdRfntnACBgwSmsyZPxm9Df/74s4M/8F3j7y750DD8r3Hf073u09/vGIPLj/25YXj3+NhHD6rJbo4XqOVqAcHk+LVhjwQIBBKo5c06EJlSCBCoTOCnPzNezvW218+QTGdJvnL8SV0f/zPD8J3jjwz+429cO/MnxvtMPvDDw/Ce8TfG+0OglIBLuUrJ2y8BAmEEXNoVphUKIUAgg8CPjD8u+M+PV2h9+1e/NfhXTb+DcfwF8U++cxi+YbwL/mNjcPmVTw7D+Avh/SFQTEAwKUZvxwQIRBKY7zXxO08idUUtBAikEvip8UTI137JMHz3fx6GPzKeMfnV48Djve/D9FO7pvveXxr/fvLVYXjvD6Tao3EIbBd4GD+M/RiG7W62IECgYYEpnEx/3BjfcJNNjUBHAtPlWdPB3pd///iLFcfw8bnxtyu+Nv5ek18az6RMf97x7cPwqTGpvDaeNfnc+CtNpntNfsJN8E2ukOjffHPGpMllZ1IECOwRcPZkj55tCRCIKPDVPzQMr356/EWLXzn+Oxb4tm8dL+P6u+O/493Gv/J1w/C9//Z7hne+PP6yk49ErF5NvQg4Y9JLp82TAIG7BJw9uYvNRgQIBBP4neNZk1fGMyYf//h41mQ8Y/KO8ezIz41nTH7EmZFgncpbjjMmeX2NToAAgawCzp5k5TU4AQJXBFIeSE4/keuXx5/E9S//4z8df1TweHOJsyNX9D19tIBLuY4Wtz8CBKoU8JO7qmybogk0IZAinPy3+cyIMNLEmmh1En6PSaudNS8CBJILTOHkNKAk34EBCRAgsBA4PWsLh8BegeifYYLJ3g7bngCB7gTmN/b5/pPuAEyYAIFDBY4KJ9N7mve1Q1trZwsBl3JZEgQIELhDYHmgMP/3HUPZhAABAjcJnH63O8d7To4xb5qYFxF4Q0AwsRQIECCwQ0BA2YFnUwIEbhaYQ0mK9xw/bfBmdi88WMCPCz4Y3O4IEGhbwAd+2/01OwJHCWy5pMqZjqO60sZ+UvwwhVwSzpjkkjUuAQJdCqT4bmaXcCZNoDOBa8FjLWxEPqDsrH2mm0lAMMkEa1gCBPoWEFD67r/ZE5gFzgWQteBxTW15Ode113ueQG0CgkltHVMvAQJVCQgoVbVLsQTuFkgZQO4uwoYEKhcQTCpvoPIJEKhDQECpo0+qJHBJ4Fz4mLa55wzIpX2Vfs5lY6U70Of+BZM++27WBAgUEhBQCsHbLYE7BJZBpLXwcY5EKDkn08bjkS8JFEzaWGNmQYBAZQLLgDKV38tBT2WtUm5HAj0FkTl8rIUQ70UdLfpgU/XjgoM1RDkECPQrMB8UOSjodw2Y+bECtQaRtTBxrJy91S4QdQ05Y1L7ylI/AQLNCCzPoggozbTWRIII1BpEgvApg0B2AcEkO7EdECBAYJuAgLLNy6sJTALL0LGmIuyvqXiMQBwBwSROL1RCgACBFwQEFAuCwLrAWggROtatPEqgJgHBpKZuqZUAgS4FBJQu227SJwLLINJ7CJnmH/UeAQuXwB4BwWSPnm0JECBwoMAyoEy77v0A7UB+uzpIYBlCrPOD4O2GQAABwSRAE5RAgACBLQKnYeT0IE5I2aLotREEhJAIXVivYe6N95V1H4/mERBM8rgalQABAocICCmHMNtJIoFlEHHQmwh2xzDnAoje7ECtYNOpvxEvBxRMKlg8SiRAgMAtAudCyrStg4xbBL0mpcAyhFiHKXXTjeW9IZ2lkfYLCCb7DY1AgACBcALLgw2XfIVrUVMFCSFNtdNkCBQTEEyK0dsxAQIEjhNwNuU469b3JITE6HDUS3Fi6KiiVgHBpNbOqZsAAQJ3Cjibcidch5sJIR023ZQJFBQQTAri2zUBAgQiCJw7m7IMMBFqVUMegbUAMu3JGsjjbVQCBNYFBJN1F48SIECgS4FzIWXGcKBa/7JYCyH6Wn9fzYBACwKCSQtdNAcCBAhkEFg7WF07qJ13vfb6DGUZcoPAWr/0aQOglxIgcKiAYHIot50RIECgboFLB7VrB8HTbC9tU7dGmerPOa9Vw35NxWMECEQVEEyidkZdBAgQqEzg3EHwpQPpc9tUNvVs5a7ZMcvGbWACBAoLCCaFG2D3BAgQaF3g0oH02oH35HFpm5q9zs333JxadTg3X48TINC3gGDSd//NngABAkUFzh14bz2AvzSJc/u4tM3acylqSlXLWn0eI0CAQO0CgkntHVQ/AQIEGhRIeQCfIlBMxClrarBlpkSAAIHdAoLJbkIDECBAgEBkAYEicnfURoAAgbcEXoJBgAABAgQIECBQn8AUulOdEaxv9ipuUUAwabGr5kSAAAECBAgQIECgMgHBpLKGKZcAAQIECBAgQIBAiwKCSYtdNScCBAgQIECAAAEClQkIJpU1TLkECBAgQIAAAQIEWhQQTFrsqjkRIECAAAECBAGunhEAAAJ0SURBVAgQqExAMKmsYcolQIAAAQIECBAg0KKAYNJiV82JAAECBAgQIECAQGUCgkllDVMuAQIECBAgQIAAgb0CEX8PjmCyt6u2J0CAAAECBAgQIEBgt4BgspvQAAQIECBAgAABAgQI7BUQTPYK2p4AAQIECBAgQIAAgd0CgsluQgMQIECAAAECBAgQILBXQDDZK2h7AgQIECBAgAABAgR2CwgmuwkNQIAAAQIECBAgQIDAXgHBZK+g7QkQIECAAAECBAgQ2C0gmOwmNAABAgQIECBAgAABAnsFBJO9grYnQIAAAQIECBAgQGC3gGCym9AABAgQIECAAAECBAjsFRBM9grangABAgQIECBAgACB3QKCyW5CAxAgQIAAAQIECBAgsFdAMNkraHsCBAgQIECAAAECBHYLCCa7CQ1AgAABAgQIECBAgMBeAcFkr6DtCRAgQIAAAQIECBDYLSCY7CY0AAECBAgQIECAAAECewUEk72CtidAgAABAgQIECBAYLeAYLKb0AAECBAgQIAAAQIECOwVEEz2CtqeAAECBAgQIECAAIHdAoLJbkIDECBAgAABAgQIECCwV0Aw2StoewIECBAgQIAAAQIEdgsIJrsJDUCAAAECBAgQIECAwF4BwWSvoO0JECBAgAABAgQIENgtIJjsJjQAAQIECBAgQIAAAQJ7BQSTvYK2J0CAAAECBAgQIEBgt4BgspvQAAQIECBAgAABAgQI7BUQTPYK2p4AAQIECBAgQIAAgd0CgsluQgMQIECAAAECBAgQILBXQDDZK2h7AgQIECBAgAABAgR2CwgmuwkNQIAAAQIECBAgQIDAXoH/Dy8wnA58mBQaAAAAAElFTkSuQmCC;" vertex="1" parent="1">
          <mxGeometry x="-270" y="63.81999999999999" width="401.18" height="291.18" as="geometry" />
        </mxCell>
      </root>
    </mxGraphModel>
  </diagram>
</mxfile>
